<svg viewBox="0 0 50 50" fill="#bbb" xmlns="http://www.w3.org/2000/svg">
    <path d="M25 50C38.8071 50 50 38.8071 50 25C50 11.1929 38.8071 0 25 0C11.1929 0 0 11.1929 0 25C0 38.8071 11.1929 50 25 50Z"/>
    <path d="M25.0944 22.044L28.0418 19.1871C28.805 18.4473 30.0425 18.4473 30.8058 19.1871C31.569 19.9269 31.569 21.1264 30.8058 21.8663L26.6273 25.9165C26.5831 25.9697 26.5356 26.0212 26.4846 26.0706C25.7213 26.8104 24.4838 26.8104 23.7206 26.0706L13.5724 16.234C12.8092 15.4942 12.8092 14.2947 13.5724 13.5549C14.3357 12.815 15.5732 12.815 16.3365 13.5549L25.0944 22.044ZM14.9545 20.662C16.0339 20.662 16.9089 21.6276 16.9089 22.8187V35.184C16.9089 36.3752 16.0339 37.3408 14.9545 37.3408C13.875 37.3408 13 36.3752 13 35.184V22.8187C13 21.6276 13.875 20.662 14.9545 20.662ZM37.4958 15.0667C37.4958 13.9253 36.6208 13 35.5414 13C34.4619 13 33.5869 13.9253 33.5869 15.0667V35.2741C33.5869 36.4155 34.4619 37.3408 35.5414 37.3408C36.6208 37.3408 37.4958 36.4155 37.4958 35.2741V15.0667Z" fill="white"/>
</svg>
