<svg width="12" height="12" viewBox="0 0 12 12" fill="#1058FB" xmlns="http://www.w3.org/2000/svg">
    <path fill-rule="evenodd" clip-rule="evenodd" d="M3.98077 1.125C4.4387 0.472356 5.14183 0 6 0C6.85817 0 7.5613 0.472356 8.01923 1.125C8.80168 0.987981 9.63822 1.15024 10.2404 1.75601V1.75962C10.8498 2.36538 11.012 3.19832 10.875 3.98077C11.5276 4.4387 12 5.14183 12 6C12 6.85817 11.5276 7.5613 10.875 8.01923C11.012 8.80529 10.8462 9.63822 10.2404 10.2404C9.63462 10.8498 8.80168 11.012 8.01923 10.875C7.5613 11.5276 6.85817 12 6 12C5.14183 12 4.4387 11.5276 3.98077 10.875C3.19471 11.012 2.36178 10.8462 1.75962 10.2404C1.15024 9.63462 0.987981 8.80168 1.125 8.01923C0.472356 7.5613 0 6.85817 0 6C0 5.14183 0.472356 4.4387 1.125 3.98077C0.987981 3.19832 1.15024 2.36178 1.75601 1.75962H1.75962V1.75601C2.36178 1.15024 3.19832 0.987981 3.98077 1.125ZM8.44111 3.8291L5.07692 7.19328L3.55529 5.67526L2.90625 6.32429L5.07692 8.49857L9.09736 4.47814L8.44111 3.8291Z"/>
</svg>
