<svg width="40" height="40" viewBox="0 0 40 40" xmlns="http://www.w3.org/2000/svg" fill="#D15C22">
    <path d="M9 6C7.3516 6 6 7.3516 6 9v4c0 1.6484 1.3516 3 3 3h1v2h2v-2h1c1.6484 0 3-1.3516 3-3V9c0-1.6484-1.3516-3-3-3H9zm3 12v2h2v-2h-2zm0 2h-2v2h2v-2zm-2 0v-2H8v2h2zM27 6c-1.6484 0-3 1.3516-3 3v4c0 1.6484 1.3516 3 3 3h1v2h2v-2h1c1.6484 0 3-1.3516 3-3V9c0-1.6484-1.3516-3-3-3h-4zm3 12v2h2v-2h-2zm0 2h-2v2h2v-2zm0 2v2h2v-2h-2zm0 2h-2v2h2v-2zm-2 0v-2h-2v2h2zM9 8h4c.5625 0 1 .4375 1 1v4c0 .5625-.4375 1-1 1H9c-.5625 0-1-.4375-1-1V9c0-.5625.4375-1 1-1zm11 0v2h-2v2h2v2h2V8h-2zm7 0h4c.5625 0 1 .4375 1 1v4c0 .5625-.4375 1-1 1h-4c-.5625 0-1-.4375-1-1V9c0-.5625.4375-1 1-1zm-17 2v2h2v-2h-2zm18 0v2h2v-2h-2zm-12 6v2h6v2h2v-4h-8zm2 4v2h-2v2h8v-2h-4v-2h-2zm-9 4c-1.6484 0-3 1.3516-3 3v4c0 1.6484 1.3516 3 3 3h4c1.6484 0 3-1.3516 3-3v-4c0-1.6484-1.3516-3-3-3H9zm0 2h4c.5625 0 1 .4375 1 1v4c0 .5625-.4375 1-1 1H9c-.5625 0-1-.4375-1-1v-4c0-.5625.4375-1 1-1zm9 0v6h2v-6h-2zm-8 2v2h2v-2h-2zm14 0v2h2v-2h-2zm2 2v2h2v-2h-2zm2 0h2v-2h-2v2zm2 0v2h2v-2h-2z"/>
</svg>
