<svg width="40" height="40" viewBox="0 0 40 40" xmlns="http://www.w3.org/2000/svg" fill="#D15C22">
    <path d="M25.5938 5c-.1954.0078-.3907.0312-.586.078h-.0156L10.1406 9.3787C8.8594 9.7372 8 10.937 8 12.2694v15.6218C8 29.5586 9.3203 31 11 31h18c1.6719 0 3-1.4336 3-3.1088V14.1627c0-1.683-1.3203-3.1166-3-3.1166H11.5625l13.9297-4.036H25.5c.2031-.0545.2578-.0155.336.0546.0703.0702.164.226.164.4753v1.496h2V7.54c0-.748-.2813-1.4648-.836-1.9556C26.7579 5.2182 26.1876 5 25.5938 5zM11 13.0408h18c.5313 0 1 .4596 1 1.122v13.7284c0 .6545-.4688 1.1142-1 1.1142H11c-.5313 0-1-.4597-1-1.1142V14.1627c0-.6623.4688-1.122 1-1.122zm15 5.9682c-1.1016 0-2 .896-2 1.9946 0 1.0986.8984 1.9946 2 1.9946s2-.896 2-1.9946c0-1.0986-.8984-1.9946-2-1.9946z"/>
</svg>
