<?xml version="1.0" encoding="UTF-8"?>
<svg width="40px" height="40px" viewBox="0 0 40 40" version="1.1" xmlns="http://www.w3.org/2000/svg" xmlns:xlink="http://www.w3.org/1999/xlink">
    <!-- Generator: Sketch 54.1 (76490) - https://sketchapp.com -->
    <title>asd</title>
    <desc>Created with Sketch.</desc>
    <g id="asd" stroke="none" stroke-width="1" fill="none" fill-rule="evenodd">
        <rect id="Rectangle-3" x="0" y="0" width="40" height="40"></rect>
        <path d="M17.007812,7 C15.359376,7 14,8.359376 14,10.007812 L14,13 L13,13 C12.6875,13 12.390626,13.148438 12.203126,13.390626 L8,18.914062 L8,25.195312 C6.8125,25.65625 6,26.882812 6,28.25 L6,29 L8,29 L8,28.25 C8,27.492188 8.507812,27 9,27 C9.492188,27 10,27.492188 10,28.25 L10,29 L12,29 L12,28.25 C12,26.882812 11.1875,25.65625 10,25.195312 L10,19.585938 L12,16.960938 L12,24 C12,24.554688 12.445312,25 13,25 L16,25 L16,31 L14,31 L14,33 L17,33 C17.554688,33 18,32.554688 18,32 L18,25 L22,25 L22,32 C22,32.554688 22.445312,33 23,33 L26,33 L26,31 L24,31 L24,25 L27,25 C27.554688,25 28,24.554688 28,24 L28,16.960938 L30,19.585938 L30,25.195312 C28.8125,25.65625 28,26.882812 28,28.25 L28,29 L30,29 L30,28.25 C30,27.492188 30.507812,27 31,27 C31.492188,27 32,27.492188 32,28.25 L32,29 L34,29 L34,28.25 C34,26.882812 33.1875,25.65625 32,25.195312 L32,18.914062 L27.820312,13.4375 C27.8125,13.421876 27.804688,13.40625 27.796876,13.390626 C27.609376,13.148438 27.3125,13 27,13 L26,13 L26,10.007812 C26,8.359376 24.640626,7 23,7 L17.007812,7 Z M17.007812,9 L23,9 C23.5625,9 24,9.4375 24,10.007812 L24,13 L16,13 L16,10.007812 C16,9.4375 16.4375,9 17.007812,9 Z M14,15 L26,15 L26,23 L14,23 L14,15 Z" id="Shape" fill="#D15C22" fill-rule="nonzero"></path>
    </g>
</svg>