<svg width="28" height="28" viewBox="0 0 300 185" xmlns="http://www.w3.org/2000/svg">
    <path d="M61.44 36.26c48.91-47.9 128.21-47.9 177.12 0l5.89 5.76a6.04 6.04 0 010 8.67L224.3 70.41a3.18 3.18 0 01-4.43 0l-8.1-7.94c-34.12-33.4-89.44-33.4-123.56 0l-8.68 8.5a3.18 3.18 0 01-4.43 0L54.98 51.25a6.04 6.04 0 010-8.67l6.46-6.32zM280.2 77.03l17.92 17.55a6.04 6.04 0 010 8.67l-80.81 79.12a6.36 6.36 0 01-8.86 0l-57.35-56.16c-.61-.6-1.6-.6-2.22 0l-57.35 56.16a6.36 6.36 0 01-8.86 0l-80.8-79.12a6.04 6.04 0 010-8.67l17.91-17.55a6.36 6.36 0 018.86 0L86 133.18a1.59 1.59 0 002.22 0l57.35-56.15a6.36 6.36 0 018.86 0l57.35 56.15c.61.6 1.6.6 2.22 0l57.35-56.15a6.36 6.36 0 018.86 0z" fill="#3B99FC"/>
</svg>
