<svg width="40" height="40" viewBox="0 0 40 40" xmlns="http://www.w3.org/2000/svg">
    <path d="M19.8932 15.843l-6.6003-6.6004c-1.3124-1.3123-.2847-3.5491 1.5659-3.4084l.0883.0067c.506.0385.7594.0595 1.0654.0911 2.5805.2664 4.5359 1.0296 6.8213 2.9619l.1229.113 1.886 1.8861 1.0177-1.0177c.585-.5835 1.36-.8753 2.1334-.8753.7733 0 1.5453.291 2.1295.8753 1.169 1.169 1.169 3.0941 0 4.2631l-1.0175 1.0176 2.1005 2.1005.0962.1032c2.0017 2.3063 2.7424 4.2687 2.9952 6.9846.0222.2388.038.436.0681.8356l.0132.1745c.1407 1.8506-2.096 2.8783-3.4084 1.566l-6.8144-6.8145L11.5518 32.711c-.3912.3868-1.0214.3851-1.4105-.0039l-2.8484-2.8486a1.0005 1.0005 0 0 1 .0039-1.4184l12.5964-12.5972zm7.8114-2.0881l.9886-.9899c.409-.4095.409-1.046 0-1.4556-.205-.2051-.4643-.3092-.7251-.3094-.2608-.0002-.5229.1035-.729.3094l-.9895.9905 1.455 1.455zm-4.9465 4.953l-1.4555-1.4556L9 29.5682c.1671.1556.661.633 1.4818 1.4318l12.2763-12.2922zm7.034-.0372l-8.2496-8.2495c-2.7182-2.2983-4.6997-2.4304-6.8354-2.5928l17.6777 17.6777c-.1624-2.1357-.2618-4.1499-2.5927-6.8354z" fill="#D15C22"/>
</svg>
