<svg width="40" height="40" viewBox="0 0 40 40" xmlns="http://www.w3.org/2000/svg">
    <path d="M7.297 28.44a1 1 0 0 0-.004 1.419l2.848 2.848a1 1 0 0 0 1.41.004l18.572-18.573a3.03 3.03 0 0 0 0-4.263A3 3 0 0 0 27.993 9c-.773 0-1.548.292-2.133.875L7.297 28.44zM27.968 11c.26 0 .52.104.725.31.41.409.41 1.045 0 1.455L10.482 31A149.77 149.77 0 0 0 9 29.568L27.24 11.31a1.03 1.03 0 0 1 .728-.309z" fill="#D15C22"/>
    <path stroke="#D15C22" stroke-width="2" stroke-linecap="round" stroke-linejoin="round" fill="#fff" d="M30.5 17.964l.047.051c1.854 2.136 2.52 3.902 2.755 6.422.021.231.037.424.067.818l.013.175.205 2.692L12.09 6.627l2.692.204.088.007c.498.038.745.058 1.039.089 2.39.246 4.155.936 6.34 2.787l8.25 8.25z"/>
</svg>
