<svg width="40" height="40" viewBox="0 0 40 40" xmlns="http://www.w3.org/2000/svg">
    <path d="M20 24c-2.2091 0-4-1.7909-4-4 0-2.2091 1.7909-4 4-4 2.2091 0 4 1.7909 4 4 0 2.2091-1.7909 4-4 4zm0-2c1.1046 0 2-.8954 2-2s-.8954-2-2-2-2 .8954-2 2 .8954 2 2 2zm-2.6668 5.545c.5208.184.7937.7554.6096 1.2761-.184.5207-.7553.7937-1.276.6096C12.7034 28.03 10 24.272 10 20s2.7034-8.0299 6.6668-9.4307c.5207-.184 1.092.0889 1.276.6096.184.5207-.0888 1.092-.6096 1.276C14.1631 13.5756 12 16.5823 12 20c0 3.4178 2.163 6.4245 5.3332 7.545zm5.3336-15.09c-.5208-.184-.7937-.7554-.6096-1.2761.184-.5207.7553-.7937 1.276-.6096C27.2966 11.97 30 15.728 30 20s-2.7034 8.0299-6.6668 9.4307c-.5207.184-1.092-.0889-1.276-.6096-.184-.5207.0888-1.092.6096-1.276C25.8369 26.4244 28 23.4177 28 20c0-3.4178-2.163-6.4245-5.3332-7.545zm-7.3273 19.6044c.5195.1875.7886.7606.6011 1.28-.1875.5196-.7606.7887-1.28.6012C8.9145 31.867 5 26.3108 5 20c0-6.3108 3.9146-11.867 9.6605-13.9406.5195-.1875 1.0926.0816 1.2801.6011s-.0816 1.0926-.6011 1.2801C10.385 9.7286 7 14.5332 7 20s3.3851 10.2714 8.3395 12.0594zm9.321-24.1188c-.5195-.1875-.7886-.7606-.6011-1.28.1875-.5196.7606-.7887 1.28-.6012C31.0855 8.133 35 13.6892 35 20c0 6.3108-3.9146 11.867-9.6605 13.9406-.5195.1875-1.0926-.0816-1.2801-.6011s.0816-1.0926.6011-1.2801C29.615 30.2714 33 25.4668 33 20S29.6149 9.7286 24.6605 7.9406z" fill="#D15C22"/>
</svg>
