<?xml version="1.0" encoding="UTF-8"?>
<svg width="17px" height="24px" viewBox="0 0 17 24" version="1.1" xmlns="http://www.w3.org/2000/svg" xmlns:xlink="http://www.w3.org/1999/xlink">
    <!-- Generator: Sketch 49.3 (51167) - http://www.bohemiancoding.com/sketch -->
    <title>path7</title>
    <desc>Created with Sketch.</desc>
    <defs></defs>
    <g id="MyMinter" stroke="none" stroke-width="1" fill="none" fill-rule="evenodd">
        <g id="myminter/startpage_01" transform="translate(-770.000000, -577.000000)" fill="#FFFFFF" fill-rule="nonzero">
            <g id="Group-3" transform="translate(250.000000, 112.000000)">
                <g id="Sign-In" transform="translate(480.000000, 432.000000)">
                    <g id="White-BTN" transform="translate(24.000000, 24.000000)">
                        <path d="M24.338785,9 C21.0200156,9 18.33419,11.6622407 18.33419,14.9518672 L18.33419,17.1825726 C17.1687695,17.3917012 16,17.6705394 16,18.0323651 L16,29.6738589 C16,29.6738589 16,29.9958506 16.3650312,30.1485477 C17.6878505,30.679668 22.8920561,32.5053942 24.0876168,32.9236515 C24.2416667,32.980083 24.2852025,32.980083 24.3253894,32.980083 C24.3823209,32.980083 24.4091121,32.980083 24.563162,32.9236515 C25.7587227,32.5053942 30.976324,30.679668 32.2991433,30.1485477 C32.6373832,30.0091286 32.6507788,29.6871369 32.6507788,29.6871369 L32.6507788,18.0323651 C32.6507788,17.6705394 31.4987539,17.3784232 30.3299844,17.1825726 L30.3299844,14.9518672 C30.346729,11.6622407 27.6441589,9 24.338785,9 Z M24.338785,11.8448133 C26.2945483,11.8448133 27.4767134,13.0165975 27.4767134,14.9551867 L27.4767134,16.8937759 C25.2831776,16.7410788 23.4111371,16.7410788 21.2042056,16.8937759 L21.2042056,14.9551867 C21.2042056,13.013278 22.3863707,11.8448133 24.338785,11.8448133 Z M24.3253894,19.7485477 C27.0547508,19.7485477 29.345405,19.9576763 29.345405,20.3327801 L29.345405,27.5958506 C29.345405,27.7087137 29.3320093,27.7219917 29.2315421,27.7618257 C29.1344237,27.8049793 24.5765576,29.4348548 24.5765576,29.4348548 C24.5765576,29.4348548 24.3923676,29.4912863 24.338785,29.4912863 C24.2818536,29.4912863 24.1010125,29.4215768 24.1010125,29.4215768 C24.1010125,29.4215768 19.5431464,27.7917012 19.446028,27.7485477 C19.3489097,27.7053942 19.3321651,27.6921162 19.3321651,27.5825726 L19.3321651,20.3195021 C19.3053738,19.9443983 21.596028,19.7485477 24.3253894,19.7485477 Z" id="path7"></path>
                    </g>
                </g>
            </g>
        </g>
    </g>
</svg>