<svg width="40" height="40" viewBox="0 0 40 40" fill="#D15C22" xmlns="http://www.w3.org/2000/svg">
<path d="M15 10C15 7.25 17.25 5 20 5C22.75 5 25 7.25 25 10C25 12.75 22.75 15 20 15C17.25 15 15 12.75 15 10ZM23 10C23 8.32813 21.6719 7 20 7C18.3281 7 17 8.32813 17 10C17 11.6719 18.3281 13 20 13C21.6719 13 23 11.6719 23 10ZM7 32V19H9V32C9 32.5625 9.4375 33 10 33H30C30.5625 33 31 32.5625 31 32V19H33V32C33 33.6484 31.6484 35 30 35H10C8.35156 35 7 33.6484 7 32ZM20 31L15 26H19V22H15L20 17L25 22H21V26H25L20 31ZM19 12V8H21V12H19Z"/>
</svg>
