<svg viewBox="0 0 128 128" fill="#D8D8D8" xmlns="http://www.w3.org/2000/svg">
    <path d="M0 0h128v128H0z"/>
    <path d="M64.24 56.43l7.55-7.31a5.12 5.12 0 017.07 0 4.75 4.75 0 010 6.86l-10.7 10.37c-.1.13-.23.26-.36.4a5.12 5.12 0 01-7.08 0l-25.97-25.2a4.75 4.75 0 010-6.85 5.12 5.12 0 017.07 0l22.42 21.73zM38.28 52.9c2.77 0 5 2.48 5 5.53v31.65c0 3.05-2.23 5.52-5 5.52-2.76 0-5-2.47-5-5.52V58.42c0-3.05 2.24-5.53 5-5.53zm57.7-14.32c0-2.92-2.23-5.29-5-5.29-2.76 0-5 2.37-5 5.3V90.3c0 2.92 2.24 5.3 5 5.3 2.77 0 5-2.38 5-5.3V38.57z" fill="white"/>
</svg>
