<svg width="40" height="40" viewBox="0 0 40 40" fill="#D15C22" xmlns="http://www.w3.org/2000/svg">
<path d="M14 10C12.75 10 11.6872 10.5048 11.0039 11.2734C10.3206 12.0421 10 13.0278 10 14C10 14.9722 10.3206 15.9579 11.0039 16.7266C11.6872 17.4952 12.75 18 14 18C15.25 18 16.3128 17.4952 16.9961 16.7266C17.6794 15.9579 18 14.9722 18 14C18 13.0278 17.6794 12.0421 16.9961 11.2734C16.3128 10.5048 15.25 10 14 10ZM26 10C24.75 10 23.6872 10.5048 23.0039 11.2734C22.3206 12.0421 22 13.0278 22 14C22 14.9722 22.3206 15.9579 23.0039 16.7266C23.6872 17.4952 24.75 18 26 18C27.25 18 28.3128 17.4952 28.9961 16.7266C29.6794 15.9579 30 14.9722 30 14C30 13.0278 29.6794 12.0421 28.9961 11.2734C28.3128 10.5048 27.25 10 26 10ZM14 12C14.75 12 15.1872 12.2452 15.5039 12.6016C15.8206 12.9579 16 13.4722 16 14C16 14.5278 15.8206 15.0421 15.5039 15.3984C15.1872 15.7548 14.75 16 14 16C13.25 16 12.8128 15.7548 12.4961 15.3984C12.1794 15.0421 12 14.5278 12 14C12 13.4722 12.1794 12.9579 12.4961 12.6016C12.8128 12.2452 13.25 12 14 12ZM26 12C26.75 12 27.1872 12.2452 27.5039 12.6016C27.8206 12.9579 28 13.4722 28 14C28 14.5278 27.8206 15.0421 27.5039 15.3984C27.1872 15.7548 26.75 16 26 16C25.25 16 24.8128 15.7548 24.4961 15.3984C24.1794 15.0421 24 14.5278 24 14C24 13.4722 24.1794 12.9579 24.4961 12.6016C24.8128 12.2452 25.25 12 26 12ZM20 16C18.75 16 17.6872 16.5048 17.0039 17.2734C16.3206 18.0421 16 19.0278 16 20C16 20.9722 16.3206 21.9579 17.0039 22.7266C17.6872 23.4952 18.75 24 20 24C21.25 24 22.3128 23.4952 22.9961 22.7266C23.6794 21.9579 24 20.9722 24 20C24 19.0278 23.6794 18.0421 22.9961 17.2734C22.3128 16.5048 21.25 16 20 16ZM12 18C10.75 18 9.68718 18.5048 9.00391 19.2734C8.32063 20.0421 8 21.0278 8 22C8 22.9722 8.32063 23.9579 9.00391 24.7266C9.14461 24.8848 9.44979 24.8545 9.62109 24.9883C7.60818 25.9589 6 27.6245 6 30H8C8 27.7782 9.77819 26 12 26C14.2218 26 16 27.7782 16 30H18C18 27.6245 16.3918 25.9589 14.3789 24.9883C14.5502 24.8545 14.8554 24.8848 14.9961 24.7266C15.6794 23.9579 16 22.9722 16 22C16 21.0278 15.6794 20.0421 14.9961 19.2734C14.3128 18.5048 13.25 18 12 18ZM20 18C20.75 18 21.1872 18.2452 21.5039 18.6016C21.8206 18.9579 22 19.4722 22 20C22 20.5278 21.8206 21.0421 21.5039 21.3984C21.1872 21.7548 20.75 22 20 22C19.25 22 18.8128 21.7548 18.4961 21.3984C18.1794 21.0421 18 20.5278 18 20C18 19.4722 18.1794 18.9579 18.4961 18.6016C18.8128 18.2452 19.25 18 20 18ZM28 18C26.75 18 25.6872 18.5048 25.0039 19.2734C24.3206 20.0421 24 21.0278 24 22C24 22.9722 24.3206 23.9579 25.0039 24.7266C25.1446 24.8848 25.4498 24.8545 25.6211 24.9883C23.6082 25.9589 22 27.6245 22 30H24C24 27.7782 25.7782 26 28 26C30.2218 26 32 27.7782 32 30H34C34 27.6245 32.3918 25.9589 30.3789 24.9883C30.5502 24.8545 30.8554 24.8848 30.9961 24.7266C31.6794 23.9579 32 22.9722 32 22C32 21.0278 31.6794 20.0421 30.9961 19.2734C30.3128 18.5048 29.25 18 28 18ZM12 20C12.75 20 13.1872 20.2452 13.5039 20.6016C13.8206 20.9579 14 21.4722 14 22C14 22.5278 13.8206 23.0421 13.5039 23.3984C13.1872 23.7548 12.75 24 12 24C11.25 24 10.8128 23.7548 10.4961 23.3984C10.1794 23.0421 10 22.5278 10 22C10 21.4722 10.1794 20.9579 10.4961 20.6016C10.8128 20.2452 11.25 20 12 20ZM28 20C28.75 20 29.1872 20.2452 29.5039 20.6016C29.8206 20.9579 30 21.4722 30 22C30 22.5278 29.8206 23.0421 29.5039 23.3984C29.1872 23.7548 28.75 24 28 24C27.25 24 26.8128 23.7548 26.4961 23.3984C26.1794 23.0421 26 22.5278 26 22C26 21.4722 26.1794 20.9579 26.4961 20.6016C26.8128 20.2452 27.25 20 28 20Z"/>
</svg>
