<?xml version="1.0" encoding="UTF-8"?>
<svg width="65px" height="12px" viewBox="0 0 65 12" version="1.1" xmlns="http://www.w3.org/2000/svg" xmlns:xlink="http://www.w3.org/1999/xlink">
    <!-- Generator: Sketch 49.3 (51167) - http://www.bohemiancoding.com/sketch -->
    <title>Group</title>
    <desc>Created with Sketch.</desc>
    <defs></defs>
    <g id="MyMinter" stroke="none" stroke-width="1" fill="none" fill-rule="evenodd">
        <g id="myminter/startpage_01" transform="translate(-974.000000, -583.000000)" fill="#FFFFFF" fill-rule="nonzero">
            <g id="Group-3" transform="translate(250.000000, 112.000000)">
                <g id="Sign-In" transform="translate(480.000000, 432.000000)">
                    <g id="White-BTN" transform="translate(24.000000, 24.000000)">
                        <g id="Group-2" transform="translate(128.000000, 11.000000)">
                            <g id="Group" transform="translate(92.000000, 4.000000)">
                                <polygon id="path13" points="2.96264474 10.9936432 2.96264474 3.03989959 0.030784852 3.03989959 0.030784852 0.187719502 9.17204233 0.187719502 9.17204233 3.03989959 6.26898892 3.03989959 6.26898892 10.9936432"></polygon>
                                <path d="M16.5785093,10.9936432 L15.0741708,7.59577344 L13.8771013,7.59577344 L13.8771013,10.9936432 L10.5707571,10.9936432 L10.5707571,0.187719502 L16.3896668,0.187719502 C18.9438417,0.187719502 20.3137501,1.86603237 20.3137501,3.89016017 C20.3137501,5.75565726 19.2255051,6.74234025 18.3517085,7.16747054 L20.3265529,10.9904705 L16.5785093,10.9904705 L16.5785093,10.9936432 Z M16.9689972,3.89016017 C16.9689972,3.30322656 16.4440791,3.04941743 15.8935552,3.04941743 L13.8771013,3.04941743 L13.8771013,4.75628382 L15.8935552,4.75628382 C16.4440791,4.74359336 16.9689972,4.48978423 16.9689972,3.89016017 Z" id="path15"></path>
                                <polygon id="path17" points="22.0485405 10.9936432 22.0485405 0.187719502 30.3160013 0.187719502 30.3160013 3.03989959 25.3420818 3.03989959 25.3420818 4.10589793 30.1943739 4.10589793 30.1943739 6.95807801 25.3420818 6.95807801 25.3420818 8.14463568 30.3160013 8.14463568 30.3160013 10.9936432"></polygon>
                                <polygon id="path19" points="32.0347882 11.0063336 32.0347882 8.40796266 36.1893233 3.05259004 32.0347882 3.05259004 32.0347882 0.200409959 40.542303 0.200409959 40.542303 2.7734 36.3749651 8.15732614 40.6639304 8.15732614 40.6639304 11.0095062 32.0347882 11.0063336"></polygon>
                                <path d="M41.4705119,5.60971701 C41.4705119,2.29116266 44.0662962,0.0132257261 47.4398555,0.0132257261 C50.8006119,0.0132257261 53.409199,2.2784722 53.409199,5.60971701 C53.409199,8.92827137 50.8134148,11.1935178 47.4398555,11.1935178 C44.0662962,11.1935178 41.4705119,8.92827137 41.4705119,5.60971701 Z M50.0484426,5.60971701 C50.0484426,4.10272531 49.0146099,2.90347718 47.4270526,2.90347718 C45.8394953,2.90347718 44.8056626,4.10272531 44.8056626,5.60971701 C44.8056626,7.11670871 45.8394953,8.31595685 47.4270526,8.31595685 C49.0274128,8.31595685 50.0484426,7.11670871 50.0484426,5.60971701 Z" id="path21"></path>
                                <path d="M60.7996625,11.0063336 L59.2953239,7.6084639 L58.0982544,7.6084639 L58.0982544,11.0063336 L54.7919103,11.0063336 L54.7919103,0.200409959 L60.61082,0.200409959 C63.1649948,0.200409959 64.5349032,1.87872282 64.5349032,3.90285062 C64.5349032,5.76834772 63.4466582,6.75503071 62.5728616,7.180161 L64.5477061,11.003161 L60.7996625,11.003161 L60.7996625,11.0063336 Z M61.2029532,3.89016017 C61.2029532,3.30322656 60.6780351,3.04941743 60.1275112,3.04941743 L58.1110573,3.04941743 L58.1110573,4.75628382 L60.1275112,4.75628382 C60.6812358,4.74359336 61.2029532,4.48978423 61.2029532,3.89016017 Z" id="path23"></path>
                            </g>
                        </g>
                    </g>
                </g>
            </g>
        </g>
    </g>
</svg>