<svg width="40" height="40" viewBox="0 0 40 40" xmlns="http://www.w3.org/2000/svg">
    <path d="M9 9c-1.6484 0-3 1.3516-3 3v16c0 1.6484 1.3516 3 3 3h1v2h4v-2h10v2h4v-2h1c1.6484 0 3-1.3516 3-3v-1h2v-4h-2v-6h2v-4h-2v-1c0-1.6484-1.3516-3-3-3H9zm0 2h20c.5625 0 1 .4375 1 1v16c0 .5625-.4375 1-1 1H9c-.5625 0-1-.4375-1-1V12c0-.5625.4375-1 1-1zm1 4v10h2V15h-2zm11 0c-2.75 0-5 2.25-5 5s2.25 5 5 5 5-2.25 5-5-2.25-5-5-5zm0 2c1.6719 0 3 1.3281 3 3s-1.3281 3-3 3-3-1.3281-3-3 1.3281-3 3-3z" fill="#D15C22"/>
</svg>
