<svg width="40" height="40" viewBox="0 0 40 40" xmlns="http://www.w3.org/2000/svg" fill="#D15C22">
    <path d="M13 11c-2.758 0-5 2.242-5 5 0 1.89 1.063 3.516 2.61 4.36C6.812 21.421 4 24.866 4 29h2c0-3.86 3.14-7 7-7 2.539 0 4.883 1.406 6.125 3.68L20 27.289l.875-1.61C22.117 23.407 24.461 22 27 22c3.86 0 7 3.14 7 7h2c0-4.133-2.813-7.578-6.61-8.64C30.938 19.515 32 17.89 32 16c0-2.758-2.242-5-5-5s-5 2.242-5 5c0 1.875 1.055 3.5 2.586 4.352A9 9 0 0 0 20 23.39a9 9 0 0 0-4.586-3.04C16.945 19.5 18 17.876 18 16c0-2.758-2.242-5-5-5zm0 2a3 3 0 1 1-.002 6.002A3 3 0 0 1 13 13zm14 0a3 3 0 1 1-.002 6.002A3 3 0 0 1 27 13z"/>
</svg>
