<svg width="24" height="24" viewBox="0 0 512 512" fill="none" xmlns="http://www.w3.org/2000/svg">
    <rect width="512" height="512" fill="#502EC2" rx="256"/>
    <path d="M284.553 273.185C284.963 268.638 285.373 264.503 285.373 260.781C285.373 241.763 276.737 235.149 262.75 235.149C254.517 235.149 244.231 240.524 236.825 245.899L226.129 319.078C232.711 320.321 238.062 320.732 243.411 320.732C268.508 320.732 279.611 304.196 284.553 273.185ZM257.412 106.257C256.593 111.327 255.771 116.396 254.944 121.465C248.222 162.702 244.241 185.298 242.997 189.252L244.231 189.67C261.513 178.091 278.791 171.891 298.541 171.891C340.507 171.891 366.431 194.216 366.431 243.831C366.431 326.107 316.646 382.336 228.596 382.336C202.678 382.336 173.876 381.097 140.549 375.722L177.177 126.484L178.647 116.47L257.412 106.257Z" fill="#FFFCFB"/>
</svg>
