<svg width="40" height="40" viewBox="0 0 40 40" xmlns="http://www.w3.org/2000/svg"><path d="M9 6C7.35 6 6 7.35 6 9v10c0 1.65 1.35 3 3 3h.98v4l5.35-4H16v5c0 1.65 1.35 3 3 3h5.68l5.33 4v-4H31c1.65 0 3-1.35 3-3V17c0-1.65-1.35-3-3-3h-7V9c0-1.65-1.35-3-3-3H9zm0 2h12c.56 0 1 .44 1 1v10c0 .56-.44 1-1 1h-6.34l-2.68 2v-2H9c-.56 0-1-.44-1-1V9c0-.56.44-1 1-1zm6 2c-1.65 0-3 1.35-3 3s1.35 3 3 3c.35 0 .69-.08 1-.19V18h2v-5c0-1.65-1.35-3-3-3zm0 2c.56 0 1 .44 1 1s-.44 1-1 1-1-.44-1-1 .44-1 1-1zm9 4h7c.56 0 1 .44 1 1v10c0 .56-.44 1-1 1h-3v2l-2.66-2H19c-.56 0-1-.44-1-1v-5h3c.35 0 .69-.08 1-.19V26h2v-2h2v2h2v-5c0-1.65-1.35-3-3-3-.35 0-.69.08-1 .19V16zm1 4c.56 0 1 .44 1 1v1h-2v-1c0-.56.44-1 1-1z" fill="#D15C22"/></svg>