<svg width="40" height="40" viewBox="0 0 40 40" xmlns="http://www.w3.org/2000/svg"><path d="M8.91 15.11c1.45 0 2.56.26 3.33.77.78.5 1.17 1.34 1.17 2.5s-.4 2-1.18 2.52c-.78.52-1.9.78-3.36.78h-.69v3.25H6v-9.57c.48-.09.98-.15 1.51-.2.53-.03 1-.05 1.4-.05zm.14 1.86a7.75 7.75 0 00-.87.05v2.8h.69c.76 0 1.33-.1 1.7-.31.4-.2.58-.59.58-1.15 0-.27-.05-.5-.14-.67-.1-.18-.24-.32-.42-.43a1.9 1.9 0 00-.67-.22 5.5 5.5 0 00-.87-.07zm10.39 8.15c-1.58 0-2.78-.44-3.6-1.31-.83-.88-1.24-2.13-1.24-3.74 0-.8.12-1.52.37-2.15a4.33 4.33 0 012.6-2.58 6.33 6.33 0 014.97.4l-.62 1.77a5.28 5.28 0 00-2.4-.58c-.33 0-.66.06-.98.17-.33.11-.61.3-.86.54-.24.25-.44.57-.6.96a5.1 5.1 0 00-.08 2.68c.1.39.27.72.49 1 .22.28.5.5.86.66.35.17.78.25 1.29.25a5.87 5.87 0 002.04-.36l.4-.19.6 1.75c-.3.2-.73.36-1.3.5-.55.16-1.2.23-1.94.23zm6.48-5.05c0 .47.06.9.18 1.29.11.38.28.7.5.98.22.28.49.5.8.64.32.15.69.22 1.1.22.4 0 .76-.07 1.08-.22.33-.15.6-.36.82-.64.21-.27.38-.6.5-.98.12-.39.17-.82.17-1.3 0-.47-.05-.9-.17-1.29a2.93 2.93 0 00-.5-1 2.22 2.22 0 00-.82-.63 2.55 2.55 0 00-1.08-.22 2.3 2.3 0 00-1.9.88c-.22.27-.39.6-.5.99-.12.38-.18.81-.18 1.28zm7.4 0c0 .83-.12 1.56-.36 2.19a4.17 4.17 0 01-2.55 2.54 5.57 5.57 0 01-3.79 0 4.31 4.31 0 01-2.57-2.54 5.87 5.87 0 01-.38-2.2c0-.82.13-1.55.39-2.18a4.35 4.35 0 012.6-2.55 5.43 5.43 0 013.72 0 4.27 4.27 0 012.57 2.55c.25.63.38 1.36.38 2.19z" fill="#D15C22"/></svg>