<svg width="40" height="40" viewBox="0 0 40 40" xmlns="http://www.w3.org/2000/svg"><path d="M19.893 15.843l-6.6-6.6c-1.312-1.313-.285-3.55 1.566-3.409l.088.007c.506.038.76.06 1.065.091 2.581.266 4.536 1.03 6.822 2.962l.123.113 1.886 1.886 1.017-1.018A3.013 3.013 0 0127.994 9a3 3 0 012.13.875 3.03 3.03 0 010 4.263l-1.018 1.018 2.1 2.1.097.104c2.001 2.306 2.742 4.268 2.995 6.984.022.24.038.436.068.836l.013.174c.14 1.851-2.096 2.879-3.408 1.566l-6.815-6.814L11.552 32.71a1 1 0 01-1.41-.004l-2.85-2.849a1 1 0 01.005-1.418l12.596-12.597zm7.812-2.088l.988-.99a1.017 1.017 0 000-1.456 1.024 1.024 0 00-.725-.309c-.26 0-.523.103-.729.31l-.99.99 1.456 1.455zm-4.947 4.953l-1.455-1.456L9 29.568c.167.156.661.633 1.482 1.432l12.276-12.292zm7.034-.037l-8.25-8.25c-2.718-2.298-4.7-2.43-6.835-2.593l17.678 17.678c-.163-2.136-.262-4.15-2.593-6.835z" fill="#D15C22"/></svg>