<svg width="40" height="40" viewBox="0 0 40 40" xmlns="http://www.w3.org/2000/svg"><path d="M26.72 7a4.97 4.97 0 00-4.87 4.34A6 6 0 0023.75 23a5.97 5.97 0 005.83-6.87A4.83 4.83 0 0031.65 12c0-2.75-2.22-5-4.93-5zm0 2a2.97 2.97 0 012.96 3c0 .97-.26 1.66-.75 2.14a5.9 5.9 0 00-5-3.12A2.93 2.93 0 0126.73 9zm-2.96 4a3.96 3.96 0 013.94 4c0 2.22-1.75 4-3.94 4a3.96 3.96 0 01-3.95-4c0-2.22 1.76-4 3.95-4zm-9.86 8c-1.1 0-2.25.3-2.25.3a.44.44 0 00-.11.03l-4.87 1.73a1 1 0 00-.62 1.25l1.97 6c.1.27.28.48.53.6.24.12.53.12.78.02l4.52-1.83 6.27 3.13-.11-.06a4.9 4.9 0 004.84.35l.13-.08 8.21-5.61.81-.55-1.1-1.67-.82.56L24 30.71c-.94.44-2.03.37-2.89-.2l-.12-.07-6.65-3.34a.99.99 0 00-.8-.03l-3.97 1.61-1.32-4.06 3.88-1.38c.05-.01 1.1-.24 1.78-.24.9 0 1.4.03 2.35.78 1.7 1.36 2.45 2.17 3.6 2.67 1.16.5 2.41.55 4.9.55h.98v-2h-.98c-2.46 0-3.42-.08-4.11-.39-.7-.3-1.42-1-3.18-2.39A5.41 5.41 0 0013.9 21z" fill="#D15C22"/></svg>