<svg width="12" height="12" viewBox="0 0 12 12" fill="#1058FB" xmlns="http://www.w3.org/2000/svg"><path fill-rule="evenodd" clip-rule="evenodd" d="M3.98 1.125C4.44.472 5.143 0 6 0c.858 0 1.561.472 2.02 1.125.782-.137 1.618.025 2.22.631v.004c.61.605.772 1.438.635 2.22C11.528 4.44 12 5.143 12 6c0 .858-.472 1.561-1.125 2.02.137.785-.029 1.618-.635 2.22-.605.61-1.438.772-2.22.635C7.56 11.528 6.857 12 6 12c-.858 0-1.561-.472-2.02-1.125-.785.137-1.618-.029-2.22-.635-.61-.605-.772-1.438-.635-2.22C.472 7.56 0 6.857 0 6c0-.858.472-1.561 1.125-2.02-.137-.782.025-1.618.631-2.22h.004v-.004c.602-.606 1.438-.768 2.22-.631zm4.461 2.704L5.077 7.193 3.555 5.675l-.649.65 2.17 2.174 4.021-4.02-.656-.65z"/></svg>