<svg width="24" height="24" viewBox="0 0 512 512" fill="none" xmlns="http://www.w3.org/2000/svg"><rect width="512" height="512" fill="#502EC2" rx="256"/><path d="M284.553 273.185c.41-4.547.82-8.682.82-12.404 0-19.018-8.636-25.632-22.623-25.632-8.233 0-18.519 5.375-25.925 10.75l-10.696 73.179c6.582 1.243 11.933 1.654 17.282 1.654 25.097 0 36.2-16.536 41.142-47.547zm-27.141-166.928a9820.77 9820.77 0 01-2.468 15.208c-6.722 41.237-10.703 63.833-11.947 67.787l1.234.418c17.282-11.579 34.56-17.779 54.31-17.779 41.966 0 67.89 22.325 67.89 71.94 0 82.276-49.785 138.505-137.835 138.505-25.918 0-54.72-1.239-88.047-6.614l36.628-249.238 1.47-10.014 78.765-10.213z" fill="#FFFCFB"/></svg>