<svg width="40" height="40" viewBox="0 0 40 40" xmlns="http://www.w3.org/2000/svg"><path d="M8 8v6.25c0 2.06 1.04 3.39 2.47 5.23l.49.63c2.27 2.95 3.33 4.28 3.5 4.48a2.99 2.99 0 004.09.98 2.99 2.99 0 001.05-4.07l-3.72-6.97a1 1 0 00-1.76.94l3.74 7.01a1 1 0 01.1.76 1 1 0 01-.44.62c-.45.27-1.1.07-1.34-.28a284.14 284.14 0 01-3.64-4.7l-.5-.63c-1.31-1.7-2.04-2.63-2.04-4V8H8zm8.04 0l6.1 6.48C23.49 15.93 24 16.88 24 18h-4l1.07 2H28v10H12v-5.29a302.4 302.4 0 01-2-2.57V28H8a2 2 0 000 4h24a2 2 0 000-4h-2v-9a1 1 0 00-1-1h-3c0-1.93-.96-3.35-2.4-4.88L18.8 8h-2.75z" fill="#D15C22"/></svg>