<svg width="65" height="12" viewBox="0 0 65 12" xmlns="http://www.w3.org/2000/svg"><path d="M2.963 10.994V3.04H.03V.188h9.141V3.04H6.269v7.954zm13.616 0l-1.505-3.398h-1.197v3.398h-3.306V.188h5.819c2.554 0 3.924 1.678 3.924 3.702 0 1.866-1.088 2.852-1.962 3.277l1.975 3.823h-3.748v.004zm.39-7.104c0-.587-.525-.84-1.075-.84h-2.017v1.706h2.017c.55-.012 1.075-.266 1.075-.866zm5.08 7.104V.188h8.267V3.04h-4.974v1.066h4.852v2.852h-4.852v1.187h4.974v2.849zm9.986.012V8.408l4.154-5.355h-4.154V.2h8.507v2.573l-4.167 5.384h4.289v2.853l-8.63-.004zM41.47 5.61c0-3.319 2.596-5.597 5.97-5.597 3.36 0 5.97 2.265 5.97 5.597 0 3.318-2.597 5.584-5.97 5.584-3.374 0-5.97-2.266-5.97-5.584zm8.578 0c0-1.507-1.033-2.707-2.62-2.707-1.589 0-2.622 1.2-2.622 2.707s1.033 2.706 2.621 2.706c1.6 0 2.621-1.2 2.621-2.706zM60.8 11.006l-1.505-3.398h-1.197v3.398h-3.306V.2h5.819c2.554 0 3.924 1.679 3.924 3.703 0 1.865-1.088 2.852-1.962 3.277l1.975 3.823H60.8v.003zm.403-7.116c0-.587-.525-.84-1.075-.84H58.11v1.706h2.017c.553-.012 1.075-.266 1.075-.866z" fill="#FFF"/></svg>