<svg width="24" height="24" viewBox="0 0 24 24" xmlns="http://www.w3.org/2000/svg" fill="#D15C22"><path d="M3 1a2 2 0 00-2 2v4a2 2 0 002 2h4a2 2 0 002-2V3a2 2 0 00-2-2H3zm14 0a2 2 0 00-2 2v4a2 2 0 002 2h4a2 2 0 002-2V3a2 2 0 00-2-2h-4zM3 3h4v4H3V3zm8 0v2h2V3h-2zm6 0h4v4h-4V3zM4 4v2h2V4H4zm14 0v2h2V4h-2zm-7 3v2h2V7h-2zm-8 4v2h2v-2H3zm4 0v2h2v-2H7zm4 0v2h2v-2h-2zm2 2v2h2v-2h-2zm2 0h2v-2h-2v2zm2 0v2h2v-2h-2zm2 0h2v-2h-2v2zm2 0v2h2v-2h-2zm0 2h-2v2h2v-2zm0 2v2h2v-2h-2zm0 2h-2v2h2v-2zm-2 2h-2v2h2v-2zm-2 0v-2h-2v2h2zm-2 0h-2v2h2v-2zm-2 0v-2h-2v2h2zm0-2h2v-2h-2v2zm0-2v-2h-2v2h2zm2 0h2v-2h-2v2zm2 0v2h2v-2h-2zM3 15a2 2 0 00-2 2v4a2 2 0 002 2h4a2 2 0 002-2v-4a2 2 0 00-2-2H3zm0 2h4v4H3v-4zm1 1v2h2v-2H4z"/></svg>