<svg viewBox="0 0 50 50" fill="#bbb" xmlns="http://www.w3.org/2000/svg"><path d="M25 50c13.807 0 25-11.193 25-25S38.807 0 25 0 0 11.193 0 25s11.193 25 25 25z"/><path d="M25.094 22.044l2.948-2.857c.763-.74 2-.74 2.764 0 .763.74.763 1.94 0 2.68l-4.179 4.05a1.999 1.999 0 01-2.907.154l-10.148-9.837a1.854 1.854 0 010-2.68 2.001 2.001 0 012.765 0l8.757 8.49zm-10.14-1.382c1.08 0 1.955.966 1.955 2.157v12.365c0 1.191-.875 2.157-1.954 2.157-1.08 0-1.955-.966-1.955-2.157V22.819c0-1.191.875-2.157 1.954-2.157zm22.542-5.595c0-1.142-.875-2.067-1.955-2.067s-1.954.925-1.954 2.067v20.207c0 1.142.875 2.067 1.954 2.067 1.08 0 1.955-.925 1.955-2.067V15.067z" fill="#fff"/></svg>