<svg xmlns="http://www.w3.org/2000/svg" width="24" height="24" viewBox="0 0 480 480" fill="#D15C22"><path d="M253.3 306.2c-6.77-5.95-17.79-5.06-23.75 1.72l-62.86 70.85V95.6c0-9.3-7.67-16.98-16.98-16.98s-16.98 7.67-16.98 16.98v283.19l-62.85-70.86c-6.78-6.78-16.98-7.67-23.76-1.72-6.77 6.78-7.67 16.98-1.71 23.76l92.57 103.6c6.94 8.56 19.18 7.26 24.65 0l93.39-103.6c5.96-6.7 5.14-17.8-1.71-23.75zm181.8-156.24l-91.75-103.6c-8.17-8.24-18.37-8.73-25.47 0l-93.39 103.6c-5.96 6.77-5.06 17.8 1.71 23.75 10.45 8.33 20.98 2.62 23.76-1.71l62.86-70.86v282.37c0 9.3 7.67 16.98 16.98 16.98s16.98-6.78 16.98-16.16v-283.1l62.85 70.85c6.78 6.78 16.98 7.67 23.76 1.71 6.77-6.85 7.67-17.06 1.71-23.83z"/></svg>