<svg width="40" height="40" viewBox="0 0 40 40" xmlns="http://www.w3.org/2000/svg"><g fill="none" fill-rule="evenodd"><path d="M0 0h40v40H0z"/><path d="M17.008 7A3.024 3.024 0 0014 10.008V13h-1c-.313 0-.61.148-.797.39L8 18.915v6.281c-1.188.461-2 1.688-2 3.055V29h2v-.75c0-.758.508-1.25 1-1.25s1 .492 1 1.25V29h2v-.75c0-1.367-.813-2.594-2-3.055v-5.61l2-2.624V24c0 .555.445 1 1 1h3v6h-2v2h3c.555 0 1-.445 1-1v-7h4v7c0 .555.445 1 1 1h3v-2h-2v-6h3c.555 0 1-.445 1-1v-7.04l2 2.626v5.61c-1.188.46-2 1.687-2 3.054V29h2v-.75c0-.758.508-1.25 1-1.25s1 .492 1 1.25V29h2v-.75c0-1.367-.813-2.594-2-3.055v-6.28l-4.18-5.477-.023-.047A1.015 1.015 0 0027 13h-1v-2.992C26 8.359 24.64 7 23 7h-5.992zm0 2H23c.563 0 1 .438 1 1.008V13h-8v-2.992A.99.99 0 0117.008 9zM14 15h12v8H14v-8z" fill="#D15C22" fill-rule="nonzero"/></g></svg>