<svg width="40" height="40" viewBox="0 0 40 40" xmlns="http://www.w3.org/2000/svg"><path d="M20 24a4 4 0 110-8 4 4 0 010 8zm0-2a2 2 0 100-4 2 2 0 000 4zm-2.667 5.545a1 1 0 11-.666 1.886 10.003 10.003 0 010-18.862 1 1 0 01.666 1.886 8.004 8.004 0 000 15.09zm5.334-15.09a1 1 0 11.666-1.886 10.003 10.003 0 010 18.862 1 1 0 01-.666-1.886 8.004 8.004 0 000-15.09zM15.34 32.059a1 1 0 11-.68 1.882C8.916 31.867 5 26.31 5 20c0-6.31 3.915-11.867 9.66-13.94a1 1 0 11.68 1.88C10.384 9.73 7 14.534 7 20s3.385 10.271 8.34 12.06zm9.32-24.118a1 1 0 11.68-1.882C31.084 8.133 35 13.69 35 20c0 6.31-3.915 11.867-9.66 13.94a1 1 0 11-.68-1.88C29.615 30.27 33 25.466 33 20S29.615 9.729 24.66 7.94z" fill="#D15C22"/></svg>