<svg width="40" height="40" viewBox="0 0 40 40" xmlns="http://www.w3.org/2000/svg"><path d="M11 6C9.35 6 8 7.35 8 9v20c0 1.65 1.35 3 3 3h9v-2h-9c-.56 0-1-.44-1-1v-5h4v-2h-4v-6h4v-2h-4V9c0-.56.44-1 1-1h18c.56 0 1 .44 1 1v5H16v2h14v4.25h2V9c0-1.65-1.35-3-3-3H11zm5 16v2h4v-2h-4zm12 0v2.1c-.64.13-1.23.39-1.75.74l-1.54-1.55-1.42 1.42 1.55 1.54c-.35.52-.6 1.12-.74 1.75H22v2h2.1c.13.64.39 1.23.74 1.75l-1.55 1.54 1.42 1.42 1.54-1.55c.52.35 1.12.6 1.75.74V36h2v-2.1a4.96 4.96 0 001.7-.7l1.56 1.72 1.48-1.34-1.6-1.78c.36-.53.62-1.14.76-1.8H36v-2h-2.1a4.96 4.96 0 00-.73-1.74l1.53-1.5-1.4-1.43-1.54 1.51A4.99 4.99 0 0030 24.1V22h-2zm1 4c1.67 0 3 1.33 3 3s-1.33 3-3 3-3-1.33-3-3 1.33-3 3-3z" fill="#D15C22"/></svg>