<svg width="40" height="40" viewBox="0 0 40 40" xmlns="http://www.w3.org/2000/svg" fill="#D15C22"><path d="M25.594 5a3.02 3.02 0 00-.586.078h-.016l-14.851 4.3C8.859 9.739 8 10.938 8 12.27v15.622C8 29.56 9.32 31 11 31h18c1.672 0 3-1.434 3-3.109V14.163c0-1.683-1.32-3.117-3-3.117H11.562l13.93-4.036h.008c.203-.054.258-.015.336.055.07.07.164.226.164.475v1.496h2V7.54c0-.748-.281-1.465-.836-1.956A2.365 2.365 0 0025.594 5zM11 13.04h18c.531 0 1 .46 1 1.123V27.89c0 .655-.469 1.114-1 1.114H11c-.531 0-1-.46-1-1.114V14.163c0-.663.469-1.122 1-1.122zm15 5.969c-1.102 0-2 .896-2 1.995a2.001 2.001 0 004 0 2.001 2.001 0 00-2-1.995z"/></svg>