<svg width="40" height="40" viewBox="0 0 40 40" fill="#D15C22" xmlns="http://www.w3.org/2000/svg"><path d="M14 10c-1.25 0-2.313.505-2.996 1.273C10.32 12.043 10 13.028 10 14s.32 1.958 1.004 2.727C11.687 17.495 12.75 18 14 18s2.313-.505 2.996-1.273C17.68 15.957 18 14.972 18 14s-.32-1.958-1.004-2.727C16.313 10.505 15.25 10 14 10zm12 0c-1.25 0-2.313.505-2.996 1.273C22.32 12.043 22 13.028 22 14s.32 1.958 1.004 2.727C23.687 17.495 24.75 18 26 18s2.313-.505 2.996-1.273C29.68 15.957 30 14.972 30 14s-.32-1.958-1.004-2.727C28.313 10.505 27.25 10 26 10zm-12 2c.75 0 1.187.245 1.504.602.317.356.496.87.496 1.398 0 .528-.18 1.042-.496 1.398-.317.357-.754.602-1.504.602s-1.187-.245-1.504-.602C12.18 15.042 12 14.528 12 14c0-.528.18-1.042.496-1.398.317-.357.754-.602 1.504-.602zm12 0c.75 0 1.187.245 1.504.602.317.356.496.87.496 1.398 0 .528-.18 1.042-.496 1.398-.317.357-.754.602-1.504.602s-1.187-.245-1.504-.602C24.18 15.042 24 14.528 24 14c0-.528.18-1.042.496-1.398.317-.357.754-.602 1.504-.602zm-6 4c-1.25 0-2.313.505-2.996 1.273C16.32 18.043 16 19.028 16 20s.32 1.958 1.004 2.727C17.687 23.495 18.75 24 20 24s2.313-.505 2.996-1.273C23.68 21.957 24 20.972 24 20s-.32-1.958-1.004-2.727C22.313 16.505 21.25 16 20 16zm-8 2c-1.25 0-2.313.505-2.996 1.273C8.32 20.043 8 21.028 8 22s.32 1.958 1.004 2.727c.14.158.446.128.617.261C7.608 25.958 6 27.625 6 30h2c0-2.222 1.778-4 4-4s4 1.778 4 4h2c0-2.375-1.608-4.041-3.621-5.012.171-.133.476-.103.617-.261C15.68 23.957 16 22.972 16 22s-.32-1.958-1.004-2.727C14.313 18.505 13.25 18 12 18zm8 0c.75 0 1.187.245 1.504.602.317.356.496.87.496 1.398 0 .528-.18 1.042-.496 1.398-.317.357-.754.602-1.504.602s-1.187-.245-1.504-.602C18.18 21.042 18 20.528 18 20c0-.528.18-1.042.496-1.398.317-.357.754-.602 1.504-.602zm8 0c-1.25 0-2.313.505-2.996 1.273C24.32 20.043 24 21.028 24 22s.32 1.958 1.004 2.727c.14.158.446.128.617.261C23.608 25.958 22 27.625 22 30h2c0-2.222 1.778-4 4-4s4 1.778 4 4h2c0-2.375-1.608-4.041-3.621-5.012.171-.133.476-.103.617-.261C31.68 23.957 32 22.972 32 22s-.32-1.958-1.004-2.727C30.313 18.505 29.25 18 28 18zm-16 2c.75 0 1.187.245 1.504.602.317.356.496.87.496 1.398 0 .528-.18 1.042-.496 1.398-.317.357-.754.602-1.504.602s-1.187-.245-1.504-.602C10.18 23.042 10 22.528 10 22c0-.528.18-1.042.496-1.398.317-.357.754-.602 1.504-.602zm16 0c.75 0 1.187.245 1.504.602.317.356.496.87.496 1.398 0 .528-.18 1.042-.496 1.398-.317.357-.754.602-1.504.602s-1.187-.245-1.504-.602C26.18 23.042 26 22.528 26 22c0-.528.18-1.042.496-1.398.317-.357.754-.602 1.504-.602z"/></svg>