<svg width="17" height="24" viewBox="0 0 17 24" xmlns="http://www.w3.org/2000/svg"><path d="M8.339 0C5.02 0 2.334 2.662 2.334 5.952v2.23C1.17 8.393 0 8.672 0 9.033v11.642s0 .322.365.475c1.323.53 6.527 2.356 7.723 2.775.154.056.197.056.237.056.057 0 .084 0 .238-.056 1.196-.419 6.413-2.244 7.736-2.775a.557.557 0 00.352-.462V9.032c0-.361-1.152-.654-2.321-.85v-2.23C14.347 2.662 11.644 0 8.339 0zm0 2.845c1.956 0 3.138 1.172 3.138 3.11v1.939a43 43 0 00-6.273 0V5.955c0-1.942 1.182-3.11 3.135-3.11zm-.014 7.904c2.73 0 5.02.209 5.02.584v7.263c0 .113-.013.126-.113.166-.098.043-4.655 1.673-4.655 1.673s-.185.056-.238.056c-.057 0-.238-.07-.238-.07s-4.558-1.63-4.655-1.672c-.097-.044-.114-.057-.114-.166V11.32c-.027-.376 2.264-.571 4.993-.571z" fill="#FFF"/></svg>