<svg width="2440" height="968" viewBox="0 0 2440 968" xmlns="http://www.w3.org/2000/svg" fill="#fff" fill-opacity=".3"><path d="M884.5 968C742.84 968 628 853.16 628 711.5S742.84 455 884.5 455 1141 569.84 1141 711.5 1026.16 968 884.5 968zm.5-21c129.79 0 235-105.21 235-235 0-129.79-105.21-235-235-235-129.79 0-235 105.21-235 235 0 129.79 105.21 235 235 235zm-1-54c-100.52 0-182-81.48-182-182s81.48-182 182-182 182 81.48 182 182-81.48 182-182 182zm.01-22c88.13 0 159.99-71.86 159.99-159.99C1044 621.86 972.14 550 884.01 550A160.72 160.72 0 00723 711.01C723 799.14 794.86 871 884.01 871zm-.01-53c-59.1 0-107-47.9-107-107s47.9-107 107-107 107 47.9 107 107-47.9 107-107 107zm.5-21a85.5 85.5 0 100-171 85.5 85.5 0 000 171zm1117.32-434.76a6.68 6.68 0 01-3.04-9.15c2.59-4.83 5.27-9.72 7.97-14.53a7.2 7.2 0 019.56-2.74 6.67 6.67 0 012.84 9.2c-2.66 4.74-5.3 9.54-7.83 14.3a7.09 7.09 0 01-6.28 3.68c-1.08 0-2.19-.24-3.22-.76zM1987.76 210a6.76 6.76 0 01-6.26-9.26c1.97-4.8 2.95-9.08 2.98-13.08a6.7 6.7 0 016.83-6.66 6.74 6.74 0 016.69 6.79c-.06 5.72-1.36 11.62-3.98 18.02a6.76 6.76 0 01-6.26 4.19zm4.64 185.4a756.7 756.7 0 00-6.42 14.54 6.76 6.76 0 01-8.86 3.53 6.64 6.64 0 01-3.58-8.74c2.11-4.93 4.32-9.9 6.54-14.8a6.79 6.79 0 018.93-3.34 6.63 6.63 0 013.4 8.81zm-21.39-96.04a735.8 735.8 0 018.72-14.21 6.52 6.52 0 019.25-2.01 7.14 7.14 0 011.93 9.64 729.52 729.52 0 00-8.56 13.94 6.62 6.62 0 01-5.67 3.28c-1.21 0-2.43-.34-3.53-1.05a7.13 7.13 0 01-2.14-9.6zm-.4 148.76a796.28 796.28 0 00-5.07 15.27 6.48 6.48 0 01-6.1 4.61c-.69 0-1.38-.12-2.07-.36-3.37-1.21-5.17-5.07-4.03-8.63a830.3 830.3 0 015.17-15.53c1.21-3.53 4.9-5.35 8.25-4.07 3.34 1.28 5.07 5.18 3.85 8.71zm-24.7-88.84a6.65 6.65 0 01-3.16-9.1c2.55-4.87 5.21-9.78 7.91-14.6a7.26 7.26 0 019.6-2.78 6.64 6.64 0 012.9 9.18 570.09 570.09 0 00-7.73 14.28 7.13 7.13 0 01-6.35 3.74 7.31 7.31 0 01-3.16-.72zm-5.42-274.02a6.57 6.57 0 018.66-3.75c5.14 2.16 10.12 4.3 14.81 6.35a6.92 6.92 0 013.5 8.98 6.64 6.64 0 01-6.1 4.16c-.88 0-1.76-.18-2.6-.55a956.78 956.78 0 00-14.62-6.27 6.91 6.91 0 01-3.65-8.92zm-2.02 307.24a591.94 591.94 0 00-6.1 15.1 6.92 6.92 0 01-8.93 3.94 6.84 6.84 0 01-3.98-8.86c2-5.18 4.1-10.37 6.23-15.45a6.93 6.93 0 019.05-3.7 6.84 6.84 0 013.73 8.97zm-19.77 53.23a624.9 624.9 0 00-4.5 15.35 6.73 6.73 0 11-12.95-3.64c1.46-5.23 3-10.5 4.6-15.68a6.725 6.725 0 1112.85 3.97zM1894.04 353a7.21 7.21 0 01-3.18-.74 6.69 6.69 0 01-3.1-9.13c2.56-4.87 5.26-9.79 8.03-14.62a7.18 7.18 0 019.57-2.66 6.68 6.68 0 012.76 9.24c-2.69 4.69-5.31 9.46-7.8 14.19a7.08 7.08 0 01-6.28 3.72zm-8.07-190.25a6.89 6.89 0 01-9.47 2.23 427.17 427.17 0 00-14-8.19 6.81 6.81 0 01-2.6-9.32 6.91 6.91 0 019.37-2.59c5.18 2.91 10.05 5.76 14.46 8.47a6.8 6.8 0 012.24 9.4zm-1.42 121.51c-3.49 4.57-6.64 8.81-9.63 12.98a6.4 6.4 0 01-9.27 1.37 7.15 7.15 0 01-1.32-9.7c3.07-4.28 6.3-8.63 9.87-13.3a6.43 6.43 0 019.31-1.1 7.16 7.16 0 011.04 9.75zm-2 102.1a479.13 479.13 0 00-5.27 15.1 6.37 6.37 0 01-5.96 4.54c-.7 0-1.42-.13-2.12-.4-3.29-1.27-5-5.18-3.83-8.73a492.8 492.8 0 015.43-15.56c1.29-3.5 4.96-5.22 8.21-3.83 3.25 1.4 4.83 5.37 3.54 8.88zm-17.77 53.05a504.1 504.1 0 00-3.74 15.39 6.63 6.63 0 01-7.92 5.03 6.7 6.7 0 01-4.95-8.03c1.2-5.29 2.49-10.6 3.84-15.8a6.6 6.6 0 018.07-4.78 6.71 6.71 0 014.7 8.19zm-24.9-92.41a6.87 6.87 0 01-6.04-10.14c2.65-4.87 5.47-9.77 8.38-14.55a6.9 6.9 0 019.46-2.32 6.85 6.85 0 012.32 9.42c-2.79 4.6-5.5 9.32-8.06 14a6.89 6.89 0 01-6.06 3.59zm-13.34 31.37c-1.83 4.94-3.59 10-5.22 15.05a6.39 6.39 0 01-5.98 4.58c-.7 0-1.4-.12-2.09-.38-3.3-1.24-5.05-5.14-3.9-8.7 1.7-5.24 3.53-10.5 5.43-15.63 1.3-3.5 5-5.2 8.24-3.8 3.25 1.4 4.82 5.38 3.52 8.88zm-14.72 52.82a391.62 391.62 0 00-3.33 15.4 6.78 6.78 0 01-7.96 5.29 6.68 6.68 0 01-5.4-7.81c1.03-5.33 2.19-10.68 3.43-15.9a6.8 6.8 0 018.17-5 6.67 6.67 0 015.1 8.02zM1784.9 338a6.97 6.97 0 01-3.66-1.04 6.68 6.68 0 01-2.17-9.32c2.95-4.6 6.11-9.24 9.42-13.8a7 7 0 019.61-1.6 6.68 6.68 0 011.64 9.44 279.12 279.12 0 00-8.99 13.15 6.93 6.93 0 01-5.85 3.17zm-10.9-49a6.93 6.93 0 01-4.84-1.98 7.15 7.15 0 01-.2-10.01c4.72-4.98 7.93-8.72 10.42-12.13a6.94 6.94 0 019.79-1.5 7.15 7.15 0 011.47 9.92c-2.86 3.92-6.43 8.09-11.59 13.52A6.93 6.93 0 011774 289zm-1.57 79.28a256 256 0 00-6.02 14.38 6.9 6.9 0 01-6.49 4.34c-.79 0-1.6-.13-2.38-.4a6.55 6.55 0 01-4.1-8.51 269.56 269.56 0 016.32-15.11 7.03 7.03 0 019.1-3.42 6.52 6.52 0 013.57 8.72zM1745.58-127a6.4 6.4 0 01-2.26-.41 6.83 6.83 0 01-3.92-8.7c1.76-4.93 3.33-9.96 4.68-14.94.98-3.6 4.61-5.7 8.11-4.7a6.8 6.8 0 014.57 8.35 221.98 221.98 0 01-5 15.95 6.6 6.6 0 01-6.18 4.45zm4.62 442.74c-3.84 4.3-7.32 8.41-10.63 12.6a7.03 7.03 0 01-9.9 1.14 7.04 7.04 0 01-1.14-9.9c3.49-4.4 7.14-8.73 11.18-13.24a7.05 7.05 0 0110.5 9.4zm-25.96-35.82a6.76 6.76 0 01-5.53-7.71c.09-.6.13-1.2.13-1.79 0-2.79-.95-5.78-2.9-9.15a6.9 6.9 0 012.26-9.3 6.47 6.47 0 019.03 2.33c3.2 5.54 4.77 10.8 4.77 16.12 0 1.27-.1 2.54-.28 3.8a6.65 6.65 0 01-7.48 5.7zm-6 79.94c-2.36 4.57-4.57 9.3-6.6 14.08a6.6 6.6 0 01-6.05 4.06c-.87 0-1.76-.18-2.6-.55a6.78 6.78 0 01-3.45-8.84 218.75 218.75 0 017.03-15.02 6.53 6.53 0 018.9-2.82 6.8 6.8 0 012.77 9.09zm-26.2-39.74a7.25 7.25 0 01-4.9 1.88c-1.9 0-3.8-.73-5.2-2.18a6.76 6.76 0 01.31-9.78c4.35-3.95 8.48-7.52 12.48-10.97l.37-.32a7.31 7.31 0 0110.09.57 6.77 6.77 0 01-.58 9.76l-.37.33c-3.93 3.38-8 6.89-12.2 10.71zm-18.83-103.2a6.89 6.89 0 019.52-1.72c4.9 3.35 9.46 6.6 13.55 9.64a6.72 6.72 0 011.34 9.47 6.86 6.86 0 01-9.58 1.33 387.61 387.61 0 00-13.09-9.31 6.72 6.72 0 01-1.74-9.41zm-2.37-61.3a6.77 6.77 0 019.28-2.76c4.98 2.78 9.78 5.48 14.39 8.11a7.03 7.03 0 012.62 9.47 6.81 6.81 0 01-9.3 2.67c-4.57-2.6-9.33-5.29-14.28-8.05a7.03 7.03 0 01-2.7-9.45zm-.49-65.98a6.65 6.65 0 019.47.75 87.95 87.95 0 0010.74 10.54 6.89 6.89 0 01.9 9.6 6.67 6.67 0 01-9.46.9c-4.77-3.99-8.93-8.09-12.39-12.18a6.89 6.89 0 01.74-9.61zM1662.77 65a6.76 6.76 0 01-6.7-7.68c.76-5.57 2.39-11.2 4.95-17.21a6.761 6.761 0 0112.44 5.3c-2.1 4.9-3.4 9.4-4 13.76a6.76 6.76 0 01-6.7 5.83zm2.98 285.04a164.16 164.16 0 00-8.3 13.47 6.62 6.62 0 01-5.79 3.49 6.4 6.4 0 01-3.32-.93 7.15 7.15 0 01-2.45-9.53c2.75-4.98 5.78-9.9 9.02-14.63a6.48 6.48 0 019.3-1.6c3 2.24 3.69 6.6 1.54 9.73zm-25.04-32.5a7.2 7.2 0 01.71-10.04c4.82-4.25 7.8-7.65 9.38-10.7a6.94 6.94 0 019.46-2.98 7.18 7.18 0 012.93 9.62c-2.45 4.73-6.33 9.3-12.6 14.82a6.91 6.91 0 01-9.88-.72zm-16.07-57.09a6.95 6.95 0 01-1.07-9.84 7.15 7.15 0 019.96-1.06c5.05 4.02 9.52 7.85 13.27 11.38a6.94 6.94 0 01.25 9.9 7.11 7.11 0 01-10.02.24 200.75 200.75 0 00-12.4-10.62zm-3.27-133.72a6.73 6.73 0 019.5-1.35 183 183 0 0012.94 8.95 6.9 6.9 0 012.16 9.45 6.76 6.76 0 01-9.35 2.17c-5.05-3.2-9.74-6.43-13.92-9.62a6.9 6.9 0 01-1.33-9.6zm-6.02-76.82a6.7 6.7 0 01-9.32 1.96 6.94 6.94 0 01-1.92-9.5c2.82-4.37 6.06-8.87 9.9-13.78a6.65 6.65 0 019.45-1.1 6.95 6.95 0 011.07 9.64 176.42 176.42 0 00-9.18 12.78zm-11.31 56.51a6.67 6.67 0 01-8.8-3.4 48.94 48.94 0 01-4.24-18.06 6.7 6.7 0 016.68-6.96 6.7 6.7 0 016.66 6.47 35.05 35.05 0 003.08 13.09 6.73 6.73 0 01-3.38 8.86zm-2.24 128.54a7.03 7.03 0 01-9.73 1.85c-4.38-2.93-9.06-6-13.9-9.12a6.85 6.85 0 01-2.03-9.56 7.06 7.06 0 019.7-2c4.9 3.16 9.64 6.27 14.08 9.24a6.85 6.85 0 011.88 9.6zM1575 158.3a6.88 6.88 0 019.44-2.3 287.5 287.5 0 006.84 4.02l7.27 4.16a6.863 6.863 0 11-6.84 11.9l-7.24-4.13a305.9 305.9 0 01-7.17-4.22 6.86 6.86 0 01-2.3-9.43zM1566.8 45c-1.67 0-3.35-.6-4.66-1.83a6.66 6.66 0 01-.29-9.5c3.4-3.56 7.18-7.39 11.54-11.7a6.86 6.86 0 019.61 0 6.66 6.66 0 01.01 9.5 551.86 551.86 0 00-11.26 11.42 6.83 6.83 0 01-4.95 2.11zm-13.8 98.03a6.4 6.4 0 01-4.6 1.97 6.4 6.4 0 01-4.73-2.12 83.65 83.65 0 01-10.69-14.26 7.2 7.2 0 012.15-9.58 6.4 6.4 0 019.08 2.27 69.9 69.9 0 008.93 11.87 7.25 7.25 0 01-.14 9.85zm10.1-152.8c4.1-3.95 7.86-7.63 11.48-11.26a6.63 6.63 0 019.48.05 6.9 6.9 0 01-.05 9.64c-3.69 3.7-7.51 7.45-11.7 11.47a6.63 6.63 0 01-9.47-.26 6.9 6.9 0 01.26-9.63zm1.42-42.64a341.3 341.3 0 009.65-12.83 6.35 6.35 0 019.21-1.35 7.22 7.22 0 011.29 9.74 357.3 357.3 0 01-10.03 13.35 6.34 6.34 0 01-9.27.9 7.23 7.23 0 01-.85-9.8zm30.36-47.6c2.69-4.65 5.21-9.38 7.5-14.07 1.66-3.39 5.9-4.86 9.48-3.3a6.62 6.62 0 013.48 8.98c-2.43 4.97-5.1 9.97-7.94 14.88a7.21 7.21 0 01-6.27 3.52 7.42 7.42 0 01-3.42-.83 6.58 6.58 0 01-2.83-9.18zm28.16 91.56c-3.46 3.49-7.25 7.26-11.57 11.51a6.7 6.7 0 01-9.54-.1 6.79 6.79 0 01.1-9.57c4.28-4.22 8.03-7.95 11.44-11.4a6.73 6.73 0 019.54-.02 6.8 6.8 0 01.03 9.58zm-2.52-55.04a7.37 7.37 0 011.08 9.84c-3.19 4.34-6.6 8.79-10.14 13.21a6.33 6.33 0 01-4.94 2.44c-1.5 0-3.02-.56-4.25-1.7a7.37 7.37 0 01-.7-9.88c3.43-4.27 6.72-8.56 9.79-12.75a6.22 6.22 0 019.16-1.16zm14.44-31.79a244.1 244.1 0 007.81-13.97 7.07 7.07 0 019.38-3.02 6.74 6.74 0 013.1 9.16 258.3 258.3 0 01-8.24 14.75 7.09 7.09 0 01-9.56 2.42 6.73 6.73 0 01-2.49-9.34zm6.78 48.6c3.76-4.28 7.37-8.56 10.74-12.72a7.05 7.05 0 0110.95 8.87c-3.49 4.3-7.22 8.71-11.09 13.13a7.03 7.03 0 01-9.94.66 7.04 7.04 0 01-.66-9.94zm8.23 248.45a6.94 6.94 0 01-9.5 2.22 1469 1469 0 00-14.11-8.4 6.7 6.7 0 01-2.38-9.3 6.98 6.98 0 019.49-2.32c4.96 2.92 9.76 5.77 14.24 8.48a6.7 6.7 0 012.26 9.32zM1646.85 9c-1.68 0-3.36-.6-4.69-1.8a6.54 6.54 0 01-.3-9.43c2.52-2.62 5.1-5.27 7.7-7.96l3.6-3.71a6.98 6.98 0 019.69-.28 6.54 6.54 0 01.28 9.43l-3.6 3.72-7.68 7.92a6.92 6.92 0 01-5 2.11zm11.41-155.57a199.1 199.1 0 003.67-15.08 6.6 6.6 0 017.8-5.21 6.7 6.7 0 015.13 7.92 213.96 213.96 0 01-3.92 16.1 6.62 6.62 0 01-8.18 4.57 6.72 6.72 0 01-4.5-8.3zm25.85 42.17a6.862 6.862 0 1112.06 6.55 276.43 276.43 0 01-8.5 14.61 6.85 6.85 0 01-9.44 2.2 6.88 6.88 0 01-2.19-9.47 262.1 262.1 0 008.07-13.89zm17.31 47c3.01 2.46 3.45 6.9.98 9.91-3.5 4.27-7.11 8.55-11.06 13.07a7.01 7.01 0 01-9.93.68 7.05 7.05 0 01-.68-9.93c3.85-4.42 7.38-8.6 10.79-12.75 2.46-3 6.9-3.45 9.9-.98zm2.05 57.88a525.54 525.54 0 00-9.78 12.85 6.25 6.25 0 01-9.18 1.18 7.32 7.32 0 01-1.11-9.81c2.89-3.94 6.17-8.25 10.04-13.2a6.26 6.26 0 019.22-.87 7.32 7.32 0 01.81 9.85zm-4.13-143.32c1.64-4.96 3.08-10 4.3-15.01a6.774 6.774 0 0113.17 3.18 210.55 210.55 0 01-4.6 16.03 6.77 6.77 0 01-12.87-4.2zm15.3-76.16c3.84-.12 7.03 2.7 7.18 6.33a208.74 208.74 0 01.03 16.32c-.15 3.56-3.21 6.35-6.9 6.35a9 9 0 01-.28 0c-3.81-.14-6.79-3.2-6.64-6.84a188.8 188.8 0 00-.02-15.3c-.15-3.65 2.82-6.71 6.63-6.86zm16.97 114.92a7.01 7.01 0 012.5 9.45c-2.7 4.8-5.62 9.67-8.69 14.49a6.71 6.71 0 01-5.67 3.14 6.61 6.61 0 01-3.68-1.13 7.02 7.02 0 01-1.97-9.57c2.93-4.6 5.71-9.26 8.28-13.83a6.68 6.68 0 019.23-2.55zm8.94 61.49a848.34 848.34 0 01-10.04 13.09 6.33 6.33 0 01-5 2.5 6.23 6.23 0 01-4.18-1.64 7.37 7.37 0 01-.8-9.87c3.66-4.7 6.89-8.9 9.88-12.88a6.22 6.22 0 019.16-1.06 7.37 7.37 0 01.98 9.86zm1.48 61.8a6.88 6.88 0 01-12.3-6.16c2.36-4.67 5.17-9.54 8.6-14.88a6.89 6.89 0 0111.59 7.4c-3.17 4.94-5.75 9.4-7.9 13.65zM1720 184.24a7.07 7.07 0 019.54-2.25c5.11 3.02 9.91 5.93 14.27 8.65a6.6 6.6 0 012.07 9.3 7.07 7.07 0 01-9.6 2c-4.25-2.66-8.95-5.51-13.96-8.47a6.6 6.6 0 01-2.32-9.23zm6.22-134.05a6.76 6.76 0 018.13 4.99 38.53 38.53 0 005.54 12.49 6.64 6.64 0 01-1.97 9.25 6.8 6.8 0 01-9.36-1.94 52.33 52.33 0 01-7.4-16.76 6.69 6.69 0 015.06-8.03zm-1.33 72.63c1.59.88 3.22 1.76 4.9 2.64l9.5 5.06a7.32 7.32 0 012.97 9.59 6.73 6.73 0 01-6.04 3.9 6.46 6.46 0 01-3.06-.77c-3.07-1.65-6.22-3.33-9.44-5.03-1.74-.92-3.44-1.84-5.1-2.75a7.32 7.32 0 01-2.86-9.62 6.6 6.6 0 019.13-3.02zm27.58-330.14a6.67 6.67 0 016.68-6.67h.07c3.7 0 6.72 2.9 6.76 6.52l.01 2.15c0 4.73-.17 9.5-.5 14.19a6.7 6.7 0 01-7.21 6.12 6.65 6.65 0 01-6.27-7.04 186.83 186.83 0 00.46-15.27zM1771.74-100a7.1 7.1 0 012.3 9.53 340.49 340.49 0 01-8.78 14.4 6.62 6.62 0 01-5.57 3.08 6.48 6.48 0 01-3.72-1.18 7.12 7.12 0 01-1.84-9.64c3-4.64 5.83-9.28 8.43-13.8a6.56 6.56 0 019.18-2.4zm9.64 51.42a7.09 7.09 0 011.26 9.68l-6.65 9.04-3.06 4.16a6.46 6.46 0 01-9.32 1.29 7.1 7.1 0 01-1.24-9.69l3.07-4.17c2.18-2.95 4.4-5.95 6.62-9a6.48 6.48 0 019.32-1.3zm.08-83.75a221.7 221.7 0 005.01-14.9c1.06-3.58 4.66-5.57 8.04-4.44 3.38 1.13 5.26 4.95 4.2 8.54a234.99 234.99 0 01-5.34 15.86 6.43 6.43 0 01-5.96 4.28c-.8 0-1.6-.16-2.38-.49-3.28-1.4-4.89-5.36-3.57-8.85zm12.76-132.48a6.84 6.84 0 018.25 4.9c1.33 5.37 2.49 10.8 3.43 16.1a6.69 6.69 0 01-6.74 7.81 6.79 6.79 0 01-6.72-5.53 226.78 226.78 0 00-3.25-15.23 6.66 6.66 0 015.03-8.05zm14.78 62.55c-.11 5.44-.44 10.93-.99 16.33a6.56 6.56 0 01-7.15 5.9 6.58 6.58 0 01-5.83-7.25c.51-5.03.82-10.16.92-15.25a6.58 6.58 0 016.66-6.47 6.57 6.57 0 016.39 6.74zm-47.83 306.87a6.83 6.83 0 01-2.08-9.46 6.9 6.9 0 019.5-2.07c4.18 2.67 8.82 5.37 13.8 8.05a6.83 6.83 0 01-3.28 12.87c-1.1 0-2.22-.26-3.26-.82a231.25 231.25 0 01-14.68-8.57zm27.18 132.99a6.9 6.9 0 01-9.6-1.2 82.03 82.03 0 00-10.45-10.68 6.62 6.62 0 01-.57-9.47 6.93 6.93 0 019.64-.56 93.95 93.95 0 0112.2 12.5 6.63 6.63 0 01-1.22 9.4zm-3.19-66.6a6.7 6.7 0 01-3.35-.9 931.09 931.09 0 00-14.23-8.02 7.03 7.03 0 01-2.75-9.43 6.76 6.76 0 019.25-2.8c5.08 2.8 9.94 5.53 14.45 8.13a7.03 7.03 0 012.59 9.48 6.8 6.8 0 01-5.96 3.54zm11.74-142.77a6.55 6.55 0 01-6.32 6.77h-.13c-3.5 0-6.38-2.9-6.44-6.52l-.01-.96c0-5.34.76-10.79 2.34-16.65a6.43 6.43 0 017.93-4.63 6.67 6.67 0 014.5 8.17 50.24 50.24 0 00-1.88 13.11l.01.71zm15.9-123.21a7.13 7.13 0 012.22 9.57 413.14 413.14 0 01-8.8 14.32 6.6 6.6 0 01-5.55 3.09 6.46 6.46 0 01-3.7-1.18 7.15 7.15 0 01-1.84-9.65c3.02-4.71 5.88-9.36 8.5-13.83a6.53 6.53 0 019.17-2.32zm11.22 51.14a7.17 7.17 0 011.87 9.67 564.16 564.16 0 00-8.57 13.88 6.6 6.6 0 01-5.66 3.29c-1.2 0-2.42-.34-3.52-1.05a7.16 7.16 0 01-2.13-9.6c2.47-4.16 5.26-8.68 8.78-14.23a6.48 6.48 0 019.23-1.96zm-1.46-83.7c2.16-4.94 4.13-9.93 5.87-14.86a7.01 7.01 0 018.88-4.22 6.81 6.81 0 014.3 8.7 236.08 236.08 0 01-6.22 15.77 6.99 6.99 0 01-9.16 3.6 6.8 6.8 0 01-3.67-9zm16.9-133.3c3.75-.8 7.48 1.46 8.32 5.05 1.26 5.4 2.31 10.83 3.14 16.16.57 3.63-2.06 7.02-5.87 7.56a6.88 6.88 0 01-7.92-5.6 209.68 209.68 0 00-2.96-15.23 6.65 6.65 0 015.29-7.94zm12.53 64.79c-.28 5.44-.8 10.94-1.55 16.32a6.71 6.71 0 01-7.6 5.67 6.64 6.64 0 01-5.78-7.44 180.8 180.8 0 001.45-15.23 6.68 6.68 0 017.08-6.26 6.66 6.66 0 016.4 6.94zm-14.77 474.95l-1.79 2.03c-2.97 3.39-6.08 6.93-9.28 10.66a6.85 6.85 0 01-9.8.63 7.26 7.26 0 01-.62-10.06c3.24-3.77 6.39-7.35 9.4-10.78l1.77-2.02a6.82 6.82 0 019.8-.53 7.26 7.26 0 01.52 10.07zm-3.08-77.9c-1.5 0-3-.48-4.26-1.46a218.7 218.7 0 00-12.88-9.23 6.66 6.66 0 01-1.81-9.36 6.93 6.93 0 019.53-1.78c5.08 3.4 9.68 6.7 13.69 9.82a6.66 6.66 0 011.1 9.46 6.9 6.9 0 01-5.37 2.55zm-30-132.78a6.22 6.22 0 01-.17-9.23 7.38 7.38 0 019.91-.15 103.4 103.4 0 0012.17 9.3 6.26 6.26 0 011.66 9.1 7.18 7.18 0 01-5.72 2.76c-1.4 0-2.83-.4-4.06-1.2-5.2-3.45-9.84-7-13.8-10.58zm5.53 53.49a6.82 6.82 0 019-3.06c5.04 2.36 9.95 4.7 14.59 6.94a6.46 6.46 0 013.03 8.77 6.85 6.85 0 01-9.03 2.95c-4.58-2.21-9.45-4.52-14.44-6.86a6.47 6.47 0 01-3.15-8.74zm46.37-204.2a553.8 553.8 0 01-8.65 14.3 6.67 6.67 0 01-5.67 3.19c-1.24 0-2.5-.36-3.63-1.1a7.06 7.06 0 01-2.02-9.59c3.08-4.93 5.84-9.5 8.44-13.95a6.62 6.62 0 019.23-2.37 7.06 7.06 0 012.3 9.52zm12.12 46.15a6.6 6.6 0 013.16 8.9 143.11 143.11 0 00-6.12 14.03 6.8 6.8 0 01-8.7 4.02 6.62 6.62 0 01-4.1-8.52c1.74-4.74 3.92-9.75 6.68-15.33a6.87 6.87 0 019.08-3.1zm-14.52 53.74c3.62-1.27 7.6.6 8.88 4.17a43.97 43.97 0 007.02 12.38c2.36 3 1.8 7.3-1.24 9.62a6.99 6.99 0 01-9.76-1.22 58.1 58.1 0 01-9.14-16.2 6.82 6.82 0 014.24-8.75zm-.74 82.49a6.78 6.78 0 01-3.3-8.95 6.64 6.64 0 018.85-3.33c2.4 1.11 4.91 2.24 7.5 3.37l7.04 3.08a6.78 6.78 0 013.45 8.88 6.67 6.67 0 01-8.77 3.5l-7-3.06a367.2 367.2 0 01-7.77-3.49zm-2.23 126.83c-.59-3.67 2.06-7.09 5.92-7.64 3.85-.57 7.46 1.97 8.04 5.63.24 1.54.37 3.1.37 4.66 0 4.8-1.14 9.58-3.48 14.62a7.09 7.09 0 01-6.46 4.01c-.95 0-1.92-.18-2.84-.57a6.58 6.58 0 01-3.62-8.84c1.53-3.31 2.28-6.32 2.28-9.21 0-.89-.07-1.78-.21-2.66zm12.93-351.06c2.22-4.8 4.26-9.61 6.08-14.33a6.95 6.95 0 018.83-3.91 6.57 6.57 0 014.06 8.52 249.62 249.62 0 01-6.41 15.13 6.9 6.9 0 01-6.29 3.93c-.93 0-1.89-.19-2.8-.58a6.54 6.54 0 01-3.47-8.76zm20.45-130.53c3.4-.72 6.73 1.6 7.41 5.2a230.8 230.8 0 012.5 16.22c.42 3.64-2.03 6.95-5.48 7.4a6.42 6.42 0 01-7.01-5.78 216.97 216.97 0 00-2.35-15.22c-.68-3.6 1.53-7.1 4.93-7.82zm8.94 80.33a6.57 6.57 0 01-7.52 5.45c-3.56-.6-5.97-4-5.38-7.62.82-5.04 1.45-10.16 1.85-15.2a6.58 6.58 0 017.05-6.07 6.6 6.6 0 015.99 7.14c-.44 5.41-1.1 10.9-1.99 16.3zm7.12 97.75c-2.85 5.05-5.75 10.06-8.25 14.36a6.9 6.9 0 01-9.41 2.51 6.83 6.83 0 01-2.52-9.36c2.47-4.27 5.35-9.24 8.17-14.22a6.91 6.91 0 019.38-2.62 6.83 6.83 0 012.63 9.33zm5.5-42.57c2.24-4.86 4.31-9.7 6.16-14.38a6.9 6.9 0 018.84-3.82 6.58 6.58 0 013.93 8.59 291.2 291.2 0 01-6.46 15.05 6.85 6.85 0 01-6.24 3.92c-.94 0-1.9-.19-2.8-.58a6.57 6.57 0 01-3.44-8.78zm16.5-53.53c.94-5.05 1.68-10.17 2.2-15.2a6.42 6.42 0 017.02-5.87c3.5.4 6.01 3.68 5.63 7.32a212.87 212.87 0 01-2.35 16.26 6.44 6.44 0 01-6.24 5.38c-.4 0-.8-.04-1.21-.12a6.63 6.63 0 01-5.04-7.77zm5.21-78a6.46 6.46 0 017.47 5.36c.93 5.4 1.67 10.88 2.18 16.26a6.58 6.58 0 01-6.42 7.27 6.52 6.52 0 01-6.41-5.98 202.55 202.55 0 00-2.04-15.24 6.61 6.61 0 015.22-7.68zm16.03 178.49a738.6 738.6 0 00-6.67 14.45 6.63 6.63 0 01-8.77 3.36 6.74 6.74 0 01-3.32-8.87 749.6 749.6 0 016.8-14.72 6.6 6.6 0 018.83-3.16c3.31 1.6 4.7 5.6 3.13 8.94zm-13.06 106.02a6.5 6.5 0 01-.52-9.41 7.1 7.1 0 019.76-.5c3.53 3.06 7.69 6.1 12.35 9.05a6.52 6.52 0 011.99 9.23 7.06 7.06 0 01-9.57 1.92 116.71 116.71 0 01-14-10.3zm-13.14 260.82c3-4.45 6.17-9.02 9.43-13.58a6.87 6.87 0 019.54-1.6 6.76 6.76 0 011.62 9.46 571.63 571.63 0 00-9.2 13.26 6.85 6.85 0 01-9.5 1.88 6.76 6.76 0 01-1.89-9.42zm-16.7-50.53c3.87-5.02 6.79-9.09 9.16-12.8a6.67 6.67 0 019.33-2 6.92 6.92 0 011.97 9.48 191 191 0 01-9.87 13.79 6.69 6.69 0 01-9.46 1.15 6.93 6.93 0 01-1.14-9.62zm13.7-178.37a7.21 7.21 0 013.18 9.44 6.77 6.77 0 01-6.12 4.02c-.98 0-1.98-.22-2.93-.7a231.28 231.28 0 01-14.86-8.08 7.24 7.24 0 01-2.53-9.65c1.86-3.4 6-4.58 9.26-2.64 4.26 2.54 8.97 5.1 14 7.61zm9.77-85.9c-.5 3.17-.76 6.23-.76 9.1 0 1.68.09 3.34.26 4.94a6.6 6.6 0 01-6.55 7.32 6.6 6.6 0 01-6.53-5.9c-.23-2.06-.34-4.2-.34-6.36 0-3.56.3-7.31.92-11.17a6.582 6.582 0 1113 2.07zm.2 223.7a6.78 6.78 0 01-9.03-3.27c-1.72-3.66-4.48-7.52-8.22-11.48a6.91 6.91 0 01.23-9.7c2.71-2.6 7-2.5 9.59.23 4.8 5.1 8.3 10.04 10.66 15.1a6.89 6.89 0 01-3.24 9.12zm-.87-72.34a6.9 6.9 0 01-3.06-.71 671.8 671.8 0 00-14.36-6.87 6.44 6.44 0 01-3.17-8.71 6.84 6.84 0 019-3.06c5.18 2.4 10.11 4.76 14.66 7a6.43 6.43 0 012.94 8.79 6.77 6.77 0 01-6.01 3.56zm24.3-245.24c2.27-5.06 4.26-9.8 6.1-14.48a6.98 6.98 0 018.9-3.85 6.55 6.55 0 014 8.55 371.63 371.63 0 01-6.32 15 6.91 6.91 0 01-6.34 4.02c-.9 0-1.83-.17-2.71-.54a6.54 6.54 0 01-3.62-8.7zm18.6-53.78a193.9 193.9 0 002.79-15.21c.51-3.64 4.06-6.2 7.93-5.71 3.86.48 6.58 3.82 6.07 7.46a207 207 0 01-2.97 16.2 6.98 6.98 0 01-6.9 5.28c-.48 0-.97-.05-1.46-.14-3.82-.76-6.26-4.29-5.46-7.88zm6.46-78.9a6.6 6.6 0 017.54 5.53c.83 5.41 1.44 10.9 1.83 16.3a6.62 6.62 0 01-13.18.95c-.37-5.05-.94-10.18-1.72-15.24a6.62 6.62 0 015.53-7.54zm13.68 171.25a6.71 6.71 0 014.38 8.47 173.5 173.5 0 00-4.25 14.96 6.78 6.78 0 01-8.13 5.07 6.73 6.73 0 01-5.12-8.05c1.13-4.9 2.62-10.17 4.56-16.12a6.81 6.81 0 018.56-4.33zm6.12-33.52a724.04 724.04 0 005.16-15.23c1.16-3.55 4.8-5.44 8.13-4.2 3.34 1.23 5.1 5.11 3.95 8.67-1.52 4.66-3.2 9.6-5.27 15.52a6.42 6.42 0 01-6 4.43c-.73 0-1.49-.14-2.22-.43-3.3-1.32-4.99-5.24-3.75-8.76zm16.75-53.87a220.64 220.64 0 002.92-15.25c.56-3.64 4.1-6.16 7.94-5.62 3.82.53 6.46 3.91 5.9 7.55a233.3 233.3 0 01-3.09 16.14A6.93 6.93 0 012016-155a7.3 7.3 0 01-1.48-.15c-3.78-.78-6.18-4.32-5.36-7.91zm8.74-76.88a6.74 6.74 0 017.6 5.7 199.1 199.1 0 011.5 16.31 6.68 6.68 0 01-6.78 6.93 6.7 6.7 0 01-6.77-6.29c-.25-5.06-.72-10.2-1.4-15.25a6.64 6.64 0 015.85-7.4zm11.3 178.12a6.663 6.663 0 0113.3.84c-.12 1.82-.18 3.6-.18 5.3 0 3.2.2 6.28.61 9.16a6.61 6.61 0 01-6.6 7.52 6.64 6.64 0 01-6.58-5.68 78.4 78.4 0 01-.75-11c0-1.97.07-4.04.2-6.14zm9.04-41.64c1.11-4.1 2.3-8.3 3.5-12.57l.85-3.04a6.84 6.84 0 018.4-4.68 6.7 6.7 0 014.76 8.27l-.86 3.04c-1.2 4.24-2.36 8.39-3.47 12.46a6.81 6.81 0 01-8.36 4.75 6.7 6.7 0 01-4.82-8.23zm13.9-55.5a275 275 0 002.85-15.35c.55-3.64 4.14-6.15 7.98-5.62 3.85.53 6.52 3.9 5.95 7.53-.8 5.18-1.8 10.59-2.97 16.07a6.96 6.96 0 01-6.9 5.33c-.46 0-.93-.04-1.4-.13-3.81-.73-6.28-4.23-5.51-7.83zm9.03-77c3.8-.4 7.22 2.22 7.63 5.84a198.8 198.8 0 011.2 16.32c.11 3.64-2.9 6.69-6.71 6.8h-.22c-3.72 0-6.8-2.83-6.91-6.4-.16-5.1-.54-10.24-1.12-15.28-.42-3.62 2.33-6.88 6.13-7.28zm13.64 239.05a7.08 7.08 0 01-5.79 2.91c-1.34 0-2.69-.36-3.88-1.12a104.51 104.51 0 01-14-10.53 6.34 6.34 0 01-.2-9.32 7.26 7.26 0 019.85-.2 90.46 90.46 0 0012.13 9.12 6.37 6.37 0 011.9 9.14zm15.22-115.47a6.53 6.53 0 017.43-5.54 6.6 6.6 0 015.46 7.54c-.87 5.81-1.5 10.84-1.9 15.37a6.56 6.56 0 01-7.1 5.98 6.6 6.6 0 01-5.9-7.2c.44-4.79 1.1-10.07 2.01-16.15zm7.05-40.28c.86-5.62 1.55-10.7 2.12-15.52a6.48 6.48 0 017.16-5.77 6.59 6.59 0 015.6 7.38 476.7 476.7 0 01-2.2 15.97 6.49 6.49 0 01-7.34 5.52 6.6 6.6 0 01-5.34-7.58zm8.85-78.31a6.57 6.57 0 017.13 5.94c.5 5.33.82 10.8.94 16.29a6.57 6.57 0 01-6.4 6.74h-.15a6.57 6.57 0 01-6.54-6.45c-.11-5.16-.41-10.32-.88-15.33a6.58 6.58 0 015.9-7.2zm20.73 256.54a6.79 6.79 0 01-6.46 4.43c-.7 0-1.42-.1-2.13-.32-5.5-1.7-10.79-3.47-15.7-5.25-3.51-1.27-5.26-4.99-3.92-8.3 1.35-3.32 5.28-4.97 8.8-3.7 4.7 1.7 9.77 3.4 15.06 5.04 3.57 1.1 5.52 4.73 4.35 8.1zm2.24-42a6.58 6.58 0 019.25-2.62c4.2 2.55 8.87 5.05 13.86 7.42a7.29 7.29 0 013.4 9.43 6.76 6.76 0 01-6.18 4.2c-.93 0-1.88-.2-2.78-.63a168.22 168.22 0 01-15.06-8.06 7.34 7.34 0 01-2.49-9.74zm19.5-96.57a6.68 6.68 0 016.96 6.33c.24 5.47.74 10.35 1.54 14.93a6.62 6.62 0 01-6.6 7.74 6.67 6.67 0 01-6.57-5.49 128 128 0 01-1.72-16.61 6.64 6.64 0 016.39-6.9zm-5.1-37.71c.3-3.98.61-8.02.9-12.12.25-3.64 3.55-6.4 7.35-6.15 3.8.24 6.69 3.38 6.43 7.02-.28 4.13-.6 8.2-.9 12.21l-.28 3.63a6.79 6.79 0 01-7.39 6.1c-3.8-.26-6.67-3.42-6.4-7.06l.29-3.63zm18.47 180a539.55 539.55 0 0115.65 4.93 6.52 6.52 0 014.21 8.34 6.76 6.76 0 01-6.4 4.44c-.73 0-1.47-.11-2.2-.36-4.79-1.59-9.92-3.2-15.25-4.8a6.53 6.53 0 01-4.48-8.2 6.8 6.8 0 018.47-4.35zm1.64-86.7a6.67 6.67 0 019.48.85 76.64 76.64 0 0010.6 10.44 6.87 6.87 0 011.02 9.58 6.69 6.69 0 01-9.47 1.03 90.27 90.27 0 01-12.47-12.3 6.87 6.87 0 01.84-9.6zM2189.56.25a455.2 455.2 0 0015.33 3.94 6.5 6.5 0 014.91 7.87 6.68 6.68 0 01-8.13 4.75 468.65 468.65 0 01-15.8-4.06 6.47 6.47 0 01-4.61-8.03 6.75 6.75 0 018.3-4.47zm9.87-164.25a6.62 6.62 0 016.86 6.38c.2 6.2.42 11.17.7 15.62a6.61 6.61 0 01-6.64 7 6.62 6.62 0 01-6.63-6.19c-.28-4.58-.51-9.67-.72-16a6.62 6.62 0 016.43-6.8zm13.03 60.66a82.01 82.01 0 005.76 13.62 6.55 6.55 0 01-2.93 8.97c-1.02.5-2.1.75-3.17.75-2.5 0-4.9-1.3-6.12-3.59a96.11 96.11 0 01-6.68-15.76 6.61 6.61 0 014.5-8.34c3.64-1.1 7.5.84 8.64 4.35zm23.2 88.93a6.8 6.8 0 01-6.48 4.41c-.7 0-1.41-.1-2.12-.32-5.54-1.7-10.86-3.5-15.79-5.37-3.49-1.31-5.18-5.04-3.77-8.3 1.4-3.28 5.37-4.86 8.87-3.55 4.65 1.76 9.67 3.47 14.93 5.08 3.58 1.1 5.53 4.7 4.36 8.05zm-2.32-46.83a7.13 7.13 0 019.74-1.46c4.01 2.83 8.48 5.54 13.28 8.06a6.61 6.61 0 012.8 9.12 7.14 7.14 0 01-9.45 2.7 133.58 133.58 0 01-14.85-9.01 6.58 6.58 0 01-1.52-9.4zm32.24 91a6.79 6.79 0 01-6.37 4.24c-.78 0-1.58-.13-2.35-.4-4.69-1.66-9.76-3.31-15.1-4.9a6.45 6.45 0 01-4.45-8.14 6.85 6.85 0 018.5-4.26 332.94 332.94 0 0115.75 5.11 6.42 6.42 0 014.02 8.34zm5.05 162.5a6.55 6.55 0 019.23-2.2 7.11 7.11 0 012.12 9.59 1476.8 1476.8 0 01-8.65 14.15 6.63 6.63 0 01-5.64 3.2 6.49 6.49 0 01-3.61-1.1 7.12 7.12 0 01-2.02-9.61c3.11-5.04 5.92-9.62 8.57-14.03zM2254.71 117c-3.48 0-6.3-2.98-6.3-6.66v-.18c0-4.79-.67-9.14-2.05-13.29-1.16-3.47.57-7.27 3.85-8.5 3.27-1.21 6.87.61 8.03 4.08a56.04 56.04 0 012.76 17.7v.19c0 3.68-2.82 6.66-6.3 6.66zm-3.86 130.85l-9.15 14.01a6.9 6.9 0 01-9.6 1.98 7.04 7.04 0 01-1.95-9.7l9.15-14a6.88 6.88 0 019.59-1.98 7.04 7.04 0 011.96 9.69zm-13.33-101.88a6.44 6.44 0 018.64-3.37 6.84 6.84 0 013.26 8.93c-2.05 4.7-4.38 9.57-7.13 14.9a6.5 6.5 0 01-5.77 3.57 6.31 6.31 0 01-3.06-.8 6.86 6.86 0 01-2.7-9.12c2.62-5.07 4.83-9.68 6.76-14.1zm-14.2-75.12c-4-2.65-8.57-5.3-13.58-7.87a6.87 6.87 0 116.27-12.22c5.47 2.8 10.49 5.71 14.92 8.65a6.87 6.87 0 11-7.6 11.44zm-1.35 131.83c-2.6 4.3-5.45 8.93-8.69 14.14a6.6 6.6 0 01-5.6 3.18c-1.25 0-2.51-.36-3.63-1.12a7.14 7.14 0 01-1.98-9.63c3.22-5.17 6.03-9.75 8.6-14a6.52 6.52 0 019.22-2.17 7.14 7.14 0 012.08 9.6zm-2.1 93.13c-3 4.6-6.03 9.26-9.1 14.01a6.93 6.93 0 01-9.6 2.05 7 7 0 01-2.05-9.66l9.12-14.05a6.92 6.92 0 019.62-2.02 7 7 0 012 9.67zm-27.2-145.16a125.93 125.93 0 01-6.49 15.54 6.95 6.95 0 01-6.26 3.81c-.99 0-1.99-.2-2.94-.63a6.51 6.51 0 01-3.32-8.82 113.1 113.1 0 005.83-13.94 6.98 6.98 0 018.7-4.3 6.58 6.58 0 014.48 8.34zm-.81 100.19l-9.13 14a6.91 6.91 0 01-9.6 2.02 7.03 7.03 0 01-2-9.68l9.15-14.03a6.9 6.9 0 019.6-2 7.02 7.02 0 011.98 9.69zM2170 91.99a6.6 6.6 0 019.5.06 61.7 61.7 0 0110.75 14.89 6.99 6.99 0 01-2.89 9.3c-.98.51-2.04.76-3.07.76a6.7 6.7 0 01-5.98-3.73c-2-3.98-4.74-7.75-8.37-11.53a7.02 7.02 0 01.06-9.75zm17.96 251.67c-2.83 4.62-5.68 9.32-8.56 14.07a6.66 6.66 0 01-5.7 3.27 6.51 6.51 0 01-3.54-1.06 7.09 7.09 0 01-2.14-9.57c2.89-4.78 5.75-9.5 8.6-14.14a6.58 6.58 0 019.26-2.15 7.08 7.08 0 012.08 9.58zm-24-140.95c-2.58 4.27-5.44 8.9-8.74 14.15a6.58 6.58 0 01-5.57 3.14 6.4 6.4 0 01-3.65-1.15 7.18 7.18 0 01-1.9-9.66c3.26-5.19 6.08-9.75 8.62-13.95a6.47 6.47 0 019.2-2.15 7.17 7.17 0 012.04 9.62zm-4 95.97c-2.83 4.6-5.69 9.28-8.57 14.06a6.65 6.65 0 01-5.7 3.26 6.5 6.5 0 01-3.54-1.06 7.1 7.1 0 01-2.13-9.57c2.9-4.8 5.78-9.52 8.62-14.15a6.57 6.57 0 019.25-2.13 7.1 7.1 0 012.06 9.59zm-20.67-218.39a279.04 279.04 0 00-14.24-6.55 6.62 6.62 0 01-3.5-8.73 6.73 6.73 0 018.82-3.46c5.33 2.28 10.35 4.59 14.93 6.87a6.62 6.62 0 012.99 8.91 6.71 6.71 0 01-9 2.96zm-23.64 65.86a6.64 6.64 0 1113.22-1.01c.09 1.17.13 2.36.13 3.54 0 4.6-.64 9.29-1.95 14.35a6.63 6.63 0 11-12.83-3.35 43.48 43.48 0 001.52-11c0-.86-.03-1.7-.1-2.53zm18.19 104.74c-3 4.53-6.05 9.19-9.16 13.96a6.88 6.88 0 01-9.57 2 7.05 7.05 0 01-1.97-9.7c3.13-4.8 6.2-9.48 9.2-14.04a6.85 6.85 0 019.59-1.93 7.05 7.05 0 011.9 9.7zm-2.8 95.5c-2.75 4.66-5.51 9.38-8.28 14.19a6.83 6.83 0 01-9.36 2.49 6.9 6.9 0 01-2.47-9.41c2.8-4.84 5.58-9.6 8.35-14.3a6.82 6.82 0 019.38-2.4 6.9 6.9 0 012.38 9.44zm-28.07-47.78c-2.9 4.74-5.74 9.48-8.47 14.07a6.7 6.7 0 01-5.76 3.32 6.6 6.6 0 01-3.5-1.01 7.04 7.04 0 01-2.25-9.53c2.75-4.63 5.63-9.42 8.55-14.21a6.64 6.64 0 019.3-2.2 7.04 7.04 0 012.13 9.56zm.17 97.46c-2.67 4.74-5.34 9.56-7.94 14.32a7.15 7.15 0 01-9.48 2.82 6.71 6.71 0 01-2.9-9.21c2.63-4.8 5.33-9.67 8.02-14.45a7.12 7.12 0 019.5-2.72 6.7 6.7 0 012.8 9.24zm5.86-193.43a515.29 515.29 0 01-8.79 14.25 6.59 6.59 0 01-5.55 3.11 6.43 6.43 0 01-3.69-1.17 7.17 7.17 0 01-1.85-9.67c3.3-5.17 6.09-9.7 8.55-13.86a6.5 6.5 0 019.17-2.26 7.16 7.16 0 012.16 9.6zm-.55-86.13a6.83 6.83 0 01-9.6.95 124.76 124.76 0 00-12.65-8.92 6.76 6.76 0 01-2.15-9.36 6.85 6.85 0 019.41-2.14c5.26 3.28 9.98 6.62 14.04 9.92a6.76 6.76 0 01.95 9.55zm-12.96-178.16a6.53 6.53 0 018.31 4.26 55.55 55.55 0 006.12 12.93c2 3.11 1.15 7.3-1.88 9.35a6.4 6.4 0 01-3.6 1.11 6.52 6.52 0 01-5.5-3.04 70.05 70.05 0 01-7.6-16.07 6.79 6.79 0 014.15-8.54zm-.85 115.21a6.77 6.77 0 01-6.42 4.44 7 7 0 01-2.18-.35 862.2 862.2 0 00-15.32-4.87 6.5 6.5 0 01-4.4-8.22 6.83 6.83 0 018.52-4.25c5.37 1.66 10.6 3.32 15.56 4.95a6.5 6.5 0 014.24 8.3zm-15.85 196.08c-3.01 4.32-6.1 8.78-9.27 13.39a6.86 6.86 0 01-9.52 1.8 6.74 6.74 0 01-1.82-9.42c3.18-4.64 6.3-9.13 9.33-13.48a6.9 6.9 0 019.53-1.73 6.74 6.74 0 011.75 9.44zm-3.69 96.54c-2.72 4.74-5.42 9.53-8.03 14.25a6.98 6.98 0 01-9.43 2.74 6.76 6.76 0 01-2.8-9.26c2.65-4.77 5.38-9.63 8.14-14.43a7.02 7.02 0 019.47-2.6 6.76 6.76 0 012.65 9.3zm-28.78 50.53c-2.3 4.78-4.6 9.64-6.82 14.44a6.56 6.56 0 01-5.94 3.85c-.94 0-1.9-.2-2.8-.65a6.8 6.8 0 01-3.12-8.97c2.25-4.86 4.57-9.79 6.9-14.63a6.5 6.5 0 018.8-3.05 6.8 6.8 0 012.98 9.01zm-19.34-93.23c2.74-4.65 5.63-9.45 8.57-14.25a6.64 6.64 0 019.3-2.16 7.04 7.04 0 012.11 9.56 942.1 942.1 0 00-8.45 14.03 6.7 6.7 0 01-5.77 3.34c-1.2 0-2.4-.32-3.5-1a7.04 7.04 0 01-2.26-9.52zm13.44-267.37a6.76 6.76 0 01-6.17 3.89 6.9 6.9 0 01-2.73-.56 216.96 216.96 0 01-14.99-7.13 6.46 6.46 0 01-2.72-8.88 6.84 6.84 0 019.14-2.64c4.28 2.25 9 4.5 14.04 6.67a6.48 6.48 0 013.43 8.65zm19.01 50.82a6.65 6.65 0 01-6.09 4.07c-.89 0-1.8-.19-2.67-.58a527.11 527.11 0 00-14.52-6.28 6.88 6.88 0 01-3.66-8.88 6.6 6.6 0 018.66-3.76 540.76 540.76 0 0114.88 6.44 6.89 6.89 0 013.4 8.99zm-3.18 112.06c-2.3 4.5-5.1 9.35-8.58 14.82a6.872 6.872 0 11-11.6-7.37c3.24-5.1 5.84-9.57 7.93-13.68a6.88 6.88 0 0112.25 6.23zm-1.03-34.99a6.79 6.79 0 01-6.35-4.52c-1.46-4.04-3.83-7.96-7.22-11.99a7.07 7.07 0 01.7-9.8 6.66 6.66 0 019.55.71c4.47 5.3 7.63 10.61 9.67 16.23a7 7 0 01-3.98 8.93c-.78.3-1.58.44-2.37.44zm-61.47-56.19a6.73 6.73 0 019.17-3.04 324.4 324.4 0 0114.68 8.18 7.1 7.1 0 012.48 9.56 6.78 6.78 0 01-5.9 3.49c-1.16 0-2.33-.3-3.4-.94-4.3-2.55-9.03-5.18-14.07-7.84a7.09 7.09 0 01-2.96-9.41zm-15.24-52.46a6.78 6.78 0 018.92-3.83 376.5 376.5 0 0015.05 5.9 7.04 7.04 0 014.11 8.95 6.85 6.85 0 01-6.43 4.63c-.77 0-1.55-.13-2.32-.42a394.31 394.31 0 01-15.59-6.1 7.05 7.05 0 01-3.74-9.13zm-5.06-66.06a6.85 6.85 0 014.03-8.84 6.94 6.94 0 018.92 4c1.67 4.39 4 8.47 7.14 12.47 2.35 3 1.8 7.3-1.21 9.64a6.93 6.93 0 01-9.72-1.21 61.6 61.6 0 01-9.16-16.06zm-2.79 254.78c-2.96 4.09-6.12 8.35-9.43 12.82l-.3.41a6.46 6.46 0 01-9.33 1.26 7.09 7.09 0 01-1.22-9.68l.3-.42c3.29-4.43 6.42-8.65 9.35-12.7a6.49 6.49 0 019.32-1.37 7.09 7.09 0 011.31 9.68zm1.45-83.07a6.98 6.98 0 01-4.44-1.58 145.77 145.77 0 00-12.63-9.17 6.58 6.58 0 01-1.87-9.3 7.01 7.01 0 019.56-1.81c5.2 3.4 9.86 6.79 13.83 10.05a6.57 6.57 0 01.81 9.43 6.95 6.95 0 01-5.26 2.38zm50.6 85.86l-.1.14c-3.02 4.22-6.15 8.6-9.37 13.14a6.72 6.72 0 01-9.42 1.58 6.9 6.9 0 01-1.55-9.55c3.23-4.57 6.37-8.96 9.4-13.2l.1-.14a6.7 6.7 0 019.44-1.53 6.9 6.9 0 011.5 9.56zM344.16 61.95a245.31 245.31 0 01.2-22.32c69.37-47.79 152.03-46 246.15 4.62 90.85 48.86 167.2 48.86 231.08.83a10.35 10.35 0 014.21-1.88 245.22 245.22 0 01-.15 22.85c-69.16 47.09-151.48 45.08-245.16-5.3-90.85-48.86-167.2-48.86-231.08-.83a10.4 10.4 0 01-5.25 2.03zm3.09 30.72c68.76-45.77 150.44-43.34 243.26 6.58 90.75 48.8 167.02 48.86 230.86 1a239.24 239.24 0 01-7.42 28.22c-66.68 39.3-145.01 34.84-233.46-12.72-89.82-48.3-165.45-48.85-228.89-2.46a239.64 239.64 0 01-4.35-20.62zm14.47 51.2c65.66-36.4 142.4-31.08 228.8 15.38 76.46 41.13 142.65 47.64 199.79 20.03a241.74 241.74 0 01-20.42 28.32c-56.36 16.33-119.74 5.61-189.4-31.85-81.4-43.78-151.17-48.33-210.75-14.26a239.75 239.75 0 01-8.02-17.63zm30.25 53.44c58.61-20.32 125.09-10.56 198.54 28.94 40.7 21.9 78.5 33.98 113.57 36.32a239.93 239.93 0 01-31.24 14.92c-29.4-5.86-60.2-17.46-92.35-34.74-65.88-35.43-124.13-45.17-175.53-29.54a242.2 242.2 0 01-13-15.9zm49.23 49.1c45.83-2.97 95.71 10.02 149.31 38.84 5.17 2.78 10.28 5.4 15.35 7.86a244.16 244.16 0 01-42.48-.07c-32.4-15.52-62.9-24.59-91.58-27.23a241.17 241.17 0 01-30.6-19.4zM361.86-38.22c65.63-36.3 142.32-30.96 228.65 15.47 88 47.32 162.38 48.81 225 5.23 2 6.5 3.72 13.13 5.16 19.86-68.12 43.67-148.74 40.58-240.18-8.6-89.6-48.18-165.09-48.84-228.43-2.78 2.66-10 5.94-19.74 9.8-29.18zm52.15-78.62c53.08-11.31 112.1.46 176.5 35.1 78.82 42.38 146.72 48 205.03 17.38 3.13 5.6 6.04 11.33 8.72 17.2-64.54 33.4-139.57 27.2-223.77-18.1-72-38.7-134.87-46.74-189.66-24.52A242.3 242.3 0 01414-116.84zm85.2-55.44c29.08 5.93 59.54 17.45 91.3 34.53 65.24 35.09 123 44.98 174.03 29.98a242.22 242.22 0 0113.1 15.94c-58.28 19.69-124.28 9.77-197.15-29.42-40.44-21.75-78-33.82-112.88-36.28a239.85 239.85 0 0131.6-14.75zm111.32-14.38c29.97 14.05 58.3 22.54 85.08 25.48a241.08 241.08 0 0132.01 19.9c-45.23 2.43-94.38-10.6-147.13-38.97-4.62-2.48-9.2-4.84-13.73-7.07a244.4 244.4 0 0143.77.66z"/></svg>