<svg width="36" height="36" viewBox="0 0 36 36" xmlns="http://www.w3.org/2000/svg"><circle fill="#d15c22" cx="18" cy="18" r="18"/><path d="M17.9 16.73l2.1-2.05a1.44 1.44 0 012 0c.54.53.54 1.4 0 1.93l-3 2.91a1.44 1.44 0 01-2.1.11l-7.3-7.08a1.33 1.33 0 010-1.93 1.44 1.44 0 011.99 0l6.3 6.11zm-7.3-.99c.77 0 1.4.7 1.4 1.55v8.9c0 .86-.63 1.56-1.4 1.56-.79 0-1.42-.7-1.42-1.55v-8.9c0-.87.63-1.56 1.41-1.56zm14.81-5.52c.78 0 1.41.67 1.41 1.5v14.54c0 .82-.63 1.49-1.4 1.49-.78 0-1.41-.67-1.41-1.49V11.71c0-.82.63-1.49 1.4-1.49z" fill="#FFF"/></svg>